<?xml version="1.0" encoding="UTF-8"?>
<svg xmlns="http://www.w3.org/2000/svg" xmlns:xlink="http://www.w3.org/1999/xlink" width="451.147909" height="244.474996" viewBox="0 0 451.147909 244.474996" version="1.1">
<defs>
<clipPath id="clip1">
  <path d="M 85 9.601562 L 88 9.601562 L 88 194.398438 L 85 194.398438 Z M 85 9.601562 "/>
</clipPath>
<clipPath id="clip2">
  <path d="M 128 9.601562 L 130 9.601562 L 130 194.398438 L 128 194.398438 Z M 128 9.601562 "/>
</clipPath>
<clipPath id="clip3">
  <path d="M 170 9.601562 L 173 9.601562 L 173 194.398438 L 170 194.398438 Z M 170 9.601562 "/>
</clipPath>
<clipPath id="clip4">
  <path d="M 213 9.601562 L 215 9.601562 L 215 194.398438 L 213 194.398438 Z M 213 9.601562 "/>
</clipPath>
<clipPath id="clip5">
  <path d="M 255 9.601562 L 258 9.601562 L 258 194.398438 L 255 194.398438 Z M 255 9.601562 "/>
</clipPath>
<clipPath id="clip6">
  <path d="M 298 9.601562 L 300 9.601562 L 300 194.398438 L 298 194.398438 Z M 298 9.601562 "/>
</clipPath>
<clipPath id="clip7">
  <path d="M 340 9.601562 L 343 9.601562 L 343 194.398438 L 340 194.398438 Z M 340 9.601562 "/>
</clipPath>
<clipPath id="clip8">
  <path d="M 383 9.601562 L 385 9.601562 L 385 194.398438 L 383 194.398438 Z M 383 9.601562 "/>
</clipPath>
<clipPath id="clip9">
  <path d="M 426 9.601562 L 428 9.601562 L 428 194.398438 L 426 194.398438 Z M 426 9.601562 "/>
</clipPath>
<clipPath id="clip10">
  <path d="M 69.546875 185 L 441.546875 185 L 441.546875 187 L 69.546875 187 Z M 69.546875 185 "/>
</clipPath>
<clipPath id="clip11">
  <path d="M 69.546875 143 L 441.546875 143 L 441.546875 145 L 69.546875 145 Z M 69.546875 143 "/>
</clipPath>
<clipPath id="clip12">
  <path d="M 69.546875 101 L 441.546875 101 L 441.546875 103 L 69.546875 103 Z M 69.546875 101 "/>
</clipPath>
<clipPath id="clip13">
  <path d="M 69.546875 59 L 441.546875 59 L 441.546875 61 L 69.546875 61 Z M 69.546875 59 "/>
</clipPath>
<clipPath id="clip14">
  <path d="M 69.546875 17 L 441.546875 17 L 441.546875 19 L 69.546875 19 Z M 69.546875 17 "/>
</clipPath>
</defs>
<g id="surface1">
<path style=" stroke:none;fill-rule:nonzero;fill:rgb(100%,100%,100%);fill-opacity:1;" d="M 0 244.476562 L 451.148438 244.476562 L 451.148438 0 L 0 0 Z M 0 244.476562 "/>
<path style=" stroke:none;fill-rule:nonzero;fill:rgb(100%,100%,100%);fill-opacity:1;" d="M 69.546875 194.398438 L 441.546875 194.398438 L 441.546875 9.601562 L 69.546875 9.601562 Z M 69.546875 194.398438 "/>
<g clip-path="url(#clip1)" clip-rule="nonzero">
<path style="fill:none;stroke-width:0.8;stroke-linecap:square;stroke-linejoin:round;stroke:rgb(69.01961%,69.01961%,69.01961%);stroke-opacity:1;stroke-miterlimit:4;" d="M 64.842773 145.798828 L 64.842773 7.201172 " transform="matrix(1.333333,0,0,1.333333,0,0.000000000000014211)"/>
</g>
<path style="fill:none;stroke-width:0.8;stroke-linecap:butt;stroke-linejoin:round;stroke:rgb(0%,0%,0%);stroke-opacity:1;stroke-miterlimit:4;" d="M 0.0000152588 -0.00117493 L 0.0000152588 3.499802 " transform="matrix(1.333333,0,0,1.333333,86.457011,194.400004)"/>
<path style=" stroke:none;fill-rule:nonzero;fill:rgb(0%,0%,0%);fill-opacity:1;" d="M 78.042969 209.132812 L 86.386719 209.132812 L 86.386719 210.238281 L 78.042969 210.238281 Z M 78.042969 209.132812 "/>
<path style=" stroke:none;fill-rule:nonzero;fill:rgb(0%,0%,0%);fill-opacity:1;" d="M 92.039062 209.246094 C 91.414062 209.246094 90.921875 209.414062 90.5625 209.75 C 90.207031 210.085938 90.027344 210.542969 90.027344 211.128906 C 90.027344 211.714844 90.207031 212.175781 90.5625 212.511719 C 90.921875 212.84375 91.414062 213.011719 92.039062 213.011719 C 92.664062 213.011719 93.15625 212.84375 93.515625 212.507812 C 93.875 212.171875 94.058594 211.710938 94.058594 211.128906 C 94.058594 210.542969 93.878906 210.085938 93.519531 209.75 C 93.164062 209.414062 92.667969 209.246094 92.039062 209.246094 Z M 90.722656 208.691406 C 90.160156 208.550781 89.71875 208.289062 89.40625 207.902344 C 89.089844 207.515625 88.933594 207.042969 88.933594 206.488281 C 88.933594 205.710938 89.210938 205.097656 89.761719 204.644531 C 90.316406 204.195312 91.074219 203.96875 92.039062 203.96875 C 93.007812 203.96875 93.765625 204.195312 94.316406 204.644531 C 94.867188 205.097656 95.144531 205.710938 95.144531 206.488281 C 95.144531 207.042969 94.988281 207.515625 94.671875 207.902344 C 94.359375 208.289062 93.921875 208.550781 93.359375 208.691406 C 93.996094 208.835938 94.488281 209.125 94.839844 209.554688 C 95.195312 209.984375 95.371094 210.507812 95.371094 211.128906 C 95.371094 212.070312 95.085938 212.796875 94.507812 213.300781 C 93.933594 213.804688 93.109375 214.054688 92.039062 214.054688 C 90.96875 214.054688 90.144531 213.804688 89.566406 213.300781 C 88.992188 212.796875 88.703125 212.070312 88.703125 211.128906 C 88.703125 210.507812 88.882812 209.984375 89.238281 209.554688 C 89.59375 209.125 90.089844 208.835938 90.722656 208.691406 Z M 90.242188 206.613281 C 90.242188 207.117188 90.398438 207.507812 90.714844 207.789062 C 91.027344 208.070312 91.46875 208.210938 92.039062 208.210938 C 92.605469 208.210938 93.046875 208.070312 93.363281 207.789062 C 93.683594 207.507812 93.84375 207.117188 93.84375 206.613281 C 93.84375 206.109375 93.683594 205.714844 93.363281 205.433594 C 93.046875 205.152344 92.605469 205.011719 92.039062 205.011719 C 91.46875 205.011719 91.027344 205.152344 90.714844 205.433594 C 90.398438 205.714844 90.242188 206.109375 90.242188 206.613281 Z M 90.242188 206.613281 "/>
<g clip-path="url(#clip2)" clip-rule="nonzero">
<path style="fill:none;stroke-width:0.8;stroke-linecap:square;stroke-linejoin:round;stroke:rgb(69.01961%,69.01961%,69.01961%);stroke-opacity:1;stroke-miterlimit:4;" d="M 96.74707 145.798828 L 96.74707 7.201172 " transform="matrix(1.333333,0,0,1.333333,0,0.000000000000014211)"/>
</g>
<path style="fill:none;stroke-width:0.8;stroke-linecap:butt;stroke-linejoin:round;stroke:rgb(0%,0%,0%);stroke-opacity:1;stroke-miterlimit:4;" d="M 0.00037384 -0.00117493 L 0.00037384 3.499802 " transform="matrix(1.333333,0,0,1.333333,128.995595,194.400004)"/>
<path style=" stroke:none;fill-rule:nonzero;fill:rgb(0%,0%,0%);fill-opacity:1;" d="M 120.578125 209.132812 L 128.925781 209.132812 L 128.925781 210.238281 L 120.578125 210.238281 Z M 120.578125 209.132812 "/>
<path style=" stroke:none;fill-rule:nonzero;fill:rgb(0%,0%,0%);fill-opacity:1;" d="M 134.742188 208.480469 C 134.152344 208.480469 133.683594 208.683594 133.335938 209.085938 C 132.992188 209.492188 132.820312 210.042969 132.820312 210.746094 C 132.820312 211.445312 132.992188 211.996094 133.335938 212.402344 C 133.683594 212.808594 134.152344 213.011719 134.742188 213.011719 C 135.332031 213.011719 135.800781 212.808594 136.144531 212.402344 C 136.488281 211.996094 136.660156 211.445312 136.660156 210.746094 C 136.660156 210.042969 136.488281 209.492188 136.144531 209.085938 C 135.800781 208.683594 135.332031 208.480469 134.742188 208.480469 Z M 137.351562 204.359375 L 137.351562 205.554688 C 137.019531 205.402344 136.6875 205.28125 136.351562 205.199219 C 136.015625 205.117188 135.683594 205.074219 135.351562 205.074219 C 134.484375 205.074219 133.820312 205.367188 133.363281 205.953125 C 132.90625 206.539062 132.644531 207.425781 132.578125 208.609375 C 132.835938 208.234375 133.15625 207.941406 133.542969 207.742188 C 133.929688 207.539062 134.355469 207.441406 134.820312 207.441406 C 135.792969 207.441406 136.566406 207.734375 137.132812 208.328125 C 137.699219 208.921875 137.984375 209.726562 137.984375 210.746094 C 137.984375 211.746094 137.6875 212.546875 137.097656 213.148438 C 136.507812 213.753906 135.722656 214.054688 134.742188 214.054688 C 133.617188 214.054688 132.757812 213.625 132.164062 212.761719 C 131.566406 211.898438 131.269531 210.652344 131.269531 209.015625 C 131.269531 207.476562 131.636719 206.253906 132.363281 205.339844 C 133.09375 204.425781 134.070312 203.96875 135.300781 203.96875 C 135.628906 203.96875 135.964844 204 136.300781 204.066406 C 136.636719 204.132812 136.988281 204.230469 137.351562 204.359375 Z M 137.351562 204.359375 "/>
<g clip-path="url(#clip3)" clip-rule="nonzero">
<path style="fill:none;stroke-width:0.8;stroke-linecap:square;stroke-linejoin:round;stroke:rgb(69.01961%,69.01961%,69.01961%);stroke-opacity:1;stroke-miterlimit:4;" d="M 128.651367 145.798828 L 128.651367 7.201172 " transform="matrix(1.333333,0,0,1.333333,0,0.000000000000014211)"/>
</g>
<path style="fill:none;stroke-width:0.8;stroke-linecap:butt;stroke-linejoin:round;stroke:rgb(0%,0%,0%);stroke-opacity:1;stroke-miterlimit:4;" d="M 0.000717163 -0.00117493 L 0.000717163 3.499802 " transform="matrix(1.333333,0,0,1.333333,171.5342,194.400004)"/>
<path style=" stroke:none;fill-rule:nonzero;fill:rgb(0%,0%,0%);fill-opacity:1;" d="M 163.117188 209.132812 L 171.464844 209.132812 L 171.464844 210.238281 L 163.117188 210.238281 Z M 163.117188 209.132812 "/>
<path style=" stroke:none;fill-rule:nonzero;fill:rgb(0%,0%,0%);fill-opacity:1;" d="M 177.917969 205.289062 L 174.597656 210.480469 L 177.917969 210.480469 Z M 177.570312 204.144531 L 179.226562 204.144531 L 179.226562 210.480469 L 180.613281 210.480469 L 180.613281 211.574219 L 179.226562 211.574219 L 179.226562 213.863281 L 177.917969 213.863281 L 177.917969 211.574219 L 173.53125 211.574219 L 173.53125 210.304688 Z M 177.570312 204.144531 "/>
<g clip-path="url(#clip4)" clip-rule="nonzero">
<path style="fill:none;stroke-width:0.8;stroke-linecap:square;stroke-linejoin:round;stroke:rgb(69.01961%,69.01961%,69.01961%);stroke-opacity:1;stroke-miterlimit:4;" d="M 160.555664 145.798828 L 160.555664 7.201172 " transform="matrix(1.333333,0,0,1.333333,0,0.000000000000014211)"/>
</g>
<path style="fill:none;stroke-width:0.8;stroke-linecap:butt;stroke-linejoin:round;stroke:rgb(0%,0%,0%);stroke-opacity:1;stroke-miterlimit:4;" d="M 0.00108337 -0.00117493 L 0.00108337 3.499802 " transform="matrix(1.333333,0,0,1.333333,214.072774,194.400004)"/>
<path style=" stroke:none;fill-rule:nonzero;fill:rgb(0%,0%,0%);fill-opacity:1;" d="M 205.65625 209.132812 L 214.003906 209.132812 L 214.003906 210.238281 L 205.65625 210.238281 Z M 205.65625 209.132812 "/>
<path style=" stroke:none;fill-rule:nonzero;fill:rgb(0%,0%,0%);fill-opacity:1;" d="M 217.976562 212.757812 L 222.5625 212.757812 L 222.5625 213.863281 L 216.394531 213.863281 L 216.394531 212.757812 C 216.890625 212.242188 217.570312 211.546875 218.433594 210.679688 C 219.296875 209.808594 219.835938 209.246094 220.058594 208.992188 C 220.480469 208.523438 220.773438 208.121094 220.9375 207.792969 C 221.109375 207.464844 221.191406 207.144531 221.191406 206.828125 C 221.191406 206.308594 221.011719 205.890625 220.648438 205.566406 C 220.285156 205.238281 219.8125 205.074219 219.230469 205.074219 C 218.820312 205.074219 218.382812 205.148438 217.925781 205.289062 C 217.46875 205.433594 216.980469 205.648438 216.457031 205.941406 L 216.457031 204.613281 C 216.988281 204.398438 217.480469 204.238281 217.941406 204.132812 C 218.402344 204.023438 218.824219 203.96875 219.207031 203.96875 C 220.214844 203.96875 221.015625 204.222656 221.613281 204.726562 C 222.214844 205.226562 222.511719 205.898438 222.511719 206.742188 C 222.511719 207.140625 222.4375 207.519531 222.289062 207.878906 C 222.140625 208.234375 221.867188 208.65625 221.46875 209.144531 C 221.363281 209.269531 221.015625 209.632812 220.433594 210.234375 C 219.855469 210.835938 219.035156 211.679688 217.976562 212.757812 Z M 217.976562 212.757812 "/>
<g clip-path="url(#clip5)" clip-rule="nonzero">
<path style="fill:none;stroke-width:0.8;stroke-linecap:square;stroke-linejoin:round;stroke:rgb(69.01961%,69.01961%,69.01961%);stroke-opacity:1;stroke-miterlimit:4;" d="M 192.459961 145.798828 L 192.459961 7.201172 " transform="matrix(1.333333,0,0,1.333333,0,0.000000000000014211)"/>
</g>
<path style="fill:none;stroke-width:0.8;stroke-linecap:butt;stroke-linejoin:round;stroke:rgb(0%,0%,0%);stroke-opacity:1;stroke-miterlimit:4;" d="M 0.00143433 -0.00117493 L 0.00143433 3.499802 " transform="matrix(1.333333,0,0,1.333333,256.611369,194.400004)"/>
<path style=" stroke:none;fill-rule:nonzero;fill:rgb(0%,0%,0%);fill-opacity:1;" d="M 256.605469 205.011719 C 255.929688 205.011719 255.421875 205.34375 255.082031 206.011719 C 254.738281 206.675781 254.570312 207.675781 254.570312 209.015625 C 254.570312 210.347656 254.738281 211.347656 255.082031 212.011719 C 255.421875 212.679688 255.929688 213.011719 256.605469 213.011719 C 257.289062 213.011719 257.800781 212.679688 258.140625 212.011719 C 258.480469 211.347656 258.652344 210.347656 258.652344 209.015625 C 258.652344 207.675781 258.480469 206.675781 258.140625 206.011719 C 257.800781 205.34375 257.289062 205.011719 256.605469 205.011719 Z M 256.605469 203.96875 C 257.699219 203.96875 258.53125 204.398438 259.105469 205.261719 C 259.679688 206.125 259.96875 207.375 259.96875 209.015625 C 259.96875 210.652344 259.679688 211.898438 259.105469 212.761719 C 258.53125 213.625 257.699219 214.054688 256.605469 214.054688 C 255.519531 214.054688 254.6875 213.625 254.113281 212.761719 C 253.535156 211.898438 253.25 210.652344 253.25 209.015625 C 253.25 207.375 253.535156 206.125 254.113281 205.261719 C 254.6875 204.398438 255.519531 203.96875 256.605469 203.96875 Z M 256.605469 203.96875 "/>
<g clip-path="url(#clip6)" clip-rule="nonzero">
<path style="fill:none;stroke-width:0.8;stroke-linecap:square;stroke-linejoin:round;stroke:rgb(69.01961%,69.01961%,69.01961%);stroke-opacity:1;stroke-miterlimit:4;" d="M 224.361328 145.798828 L 224.361328 7.201172 " transform="matrix(1.333333,0,0,1.333333,0,0.000000000000014211)"/>
</g>
<path style="fill:none;stroke-width:0.8;stroke-linecap:butt;stroke-linejoin:round;stroke:rgb(0%,0%,0%);stroke-opacity:1;stroke-miterlimit:4;" d="M -0.00114441 -0.00117493 L -0.00114441 3.499802 " transform="matrix(1.333333,0,0,1.333333,299.149963,194.400004)"/>
<path style=" stroke:none;fill-rule:nonzero;fill:rgb(0%,0%,0%);fill-opacity:1;" d="M 297.464844 212.757812 L 302.054688 212.757812 L 302.054688 213.863281 L 295.886719 213.863281 L 295.886719 212.757812 C 296.382812 212.242188 297.0625 211.546875 297.925781 210.679688 C 298.789062 209.808594 299.328125 209.246094 299.550781 208.992188 C 299.972656 208.523438 300.265625 208.121094 300.429688 207.792969 C 300.597656 207.464844 300.683594 207.144531 300.683594 206.828125 C 300.683594 206.308594 300.503906 205.890625 300.140625 205.566406 C 299.777344 205.238281 299.304688 205.074219 298.722656 205.074219 C 298.308594 205.074219 297.875 205.148438 297.417969 205.289062 C 296.960938 205.433594 296.472656 205.648438 295.949219 205.941406 L 295.949219 204.613281 C 296.480469 204.398438 296.972656 204.238281 297.433594 204.132812 C 297.894531 204.023438 298.316406 203.96875 298.699219 203.96875 C 299.703125 203.96875 300.507812 204.222656 301.105469 204.726562 C 301.703125 205.226562 302.003906 205.898438 302.003906 206.742188 C 302.003906 207.140625 301.929688 207.519531 301.777344 207.878906 C 301.628906 208.234375 301.359375 208.65625 300.960938 209.144531 C 300.855469 209.269531 300.507812 209.632812 299.925781 210.234375 C 299.347656 210.835938 298.527344 211.679688 297.464844 212.757812 Z M 297.464844 212.757812 "/>
<g clip-path="url(#clip7)" clip-rule="nonzero">
<path style="fill:none;stroke-width:0.8;stroke-linecap:square;stroke-linejoin:round;stroke:rgb(69.01961%,69.01961%,69.01961%);stroke-opacity:1;stroke-miterlimit:4;" d="M 256.265625 145.798828 L 256.265625 7.201172 " transform="matrix(1.333333,0,0,1.333333,0,0.000000000000014211)"/>
</g>
<path style="fill:none;stroke-width:0.8;stroke-linecap:butt;stroke-linejoin:round;stroke:rgb(0%,0%,0%);stroke-opacity:1;stroke-miterlimit:4;" d="M -0.000793457 -0.00117493 L -0.000793457 3.499802 " transform="matrix(1.333333,0,0,1.333333,341.688558,194.400004)"/>
<path style=" stroke:none;fill-rule:nonzero;fill:rgb(0%,0%,0%);fill-opacity:1;" d="M 342.488281 205.289062 L 339.164062 210.480469 L 342.488281 210.480469 Z M 342.140625 204.144531 L 343.792969 204.144531 L 343.792969 210.480469 L 345.183594 210.480469 L 345.183594 211.574219 L 343.792969 211.574219 L 343.792969 213.863281 L 342.488281 213.863281 L 342.488281 211.574219 L 338.097656 211.574219 L 338.097656 210.304688 Z M 342.140625 204.144531 "/>
<g clip-path="url(#clip8)" clip-rule="nonzero">
<path style="fill:none;stroke-width:0.8;stroke-linecap:square;stroke-linejoin:round;stroke:rgb(69.01961%,69.01961%,69.01961%);stroke-opacity:1;stroke-miterlimit:4;" d="M 288.169922 145.798828 L 288.169922 7.201172 " transform="matrix(1.333333,0,0,1.333333,0,0.000000000000014211)"/>
</g>
<path style="fill:none;stroke-width:0.8;stroke-linecap:butt;stroke-linejoin:round;stroke:rgb(0%,0%,0%);stroke-opacity:1;stroke-miterlimit:4;" d="M -0.000427246 -0.00117493 L -0.000427246 3.499802 " transform="matrix(1.333333,0,0,1.333333,384.227132,194.400004)"/>
<path style=" stroke:none;fill-rule:nonzero;fill:rgb(0%,0%,0%);fill-opacity:1;" d="M 384.386719 208.480469 C 383.796875 208.480469 383.328125 208.683594 382.984375 209.085938 C 382.640625 209.492188 382.464844 210.042969 382.464844 210.746094 C 382.464844 211.445312 382.640625 211.996094 382.984375 212.402344 C 383.328125 212.808594 383.796875 213.011719 384.386719 213.011719 C 384.976562 213.011719 385.445312 212.808594 385.789062 212.402344 C 386.132812 211.996094 386.304688 211.445312 386.304688 210.746094 C 386.304688 210.042969 386.132812 209.492188 385.789062 209.085938 C 385.445312 208.683594 384.976562 208.480469 384.386719 208.480469 Z M 386.996094 204.359375 L 386.996094 205.554688 C 386.667969 205.402344 386.335938 205.28125 385.996094 205.199219 C 385.660156 205.117188 385.328125 205.074219 384.996094 205.074219 C 384.128906 205.074219 383.464844 205.367188 383.007812 205.953125 C 382.550781 206.539062 382.289062 207.425781 382.226562 208.609375 C 382.480469 208.234375 382.800781 207.941406 383.1875 207.742188 C 383.574219 207.539062 384 207.441406 384.464844 207.441406 C 385.441406 207.441406 386.210938 207.734375 386.777344 208.328125 C 387.347656 208.921875 387.628906 209.726562 387.628906 210.746094 C 387.628906 211.746094 387.335938 212.546875 386.742188 213.148438 C 386.152344 213.753906 385.367188 214.054688 384.386719 214.054688 C 383.261719 214.054688 382.402344 213.625 381.808594 212.761719 C 381.214844 211.898438 380.917969 210.652344 380.917969 209.015625 C 380.917969 207.476562 381.28125 206.253906 382.011719 205.339844 C 382.738281 204.425781 383.71875 203.96875 384.945312 203.96875 C 385.277344 203.96875 385.609375 204 385.945312 204.066406 C 386.28125 204.132812 386.632812 204.230469 386.996094 204.359375 Z M 386.996094 204.359375 "/>
<g clip-path="url(#clip9)" clip-rule="nonzero">
<path style="fill:none;stroke-width:0.8;stroke-linecap:square;stroke-linejoin:round;stroke:rgb(69.01961%,69.01961%,69.01961%);stroke-opacity:1;stroke-miterlimit:4;" d="M 320.074219 145.798828 L 320.074219 7.201172 " transform="matrix(1.333333,0,0,1.333333,0,0.000000000000014211)"/>
</g>
<path style="fill:none;stroke-width:0.8;stroke-linecap:butt;stroke-linejoin:round;stroke:rgb(0%,0%,0%);stroke-opacity:1;stroke-miterlimit:4;" d="M -0.0000915527 -0.00117493 L -0.0000915527 3.499802 " transform="matrix(1.333333,0,0,1.333333,426.765747,194.400004)"/>
<path style=" stroke:none;fill-rule:nonzero;fill:rgb(0%,0%,0%);fill-opacity:1;" d="M 426.761719 209.246094 C 426.136719 209.246094 425.644531 209.414062 425.285156 209.75 C 424.929688 210.085938 424.75 210.542969 424.75 211.128906 C 424.75 211.714844 424.929688 212.175781 425.285156 212.511719 C 425.644531 212.84375 426.136719 213.011719 426.761719 213.011719 C 427.386719 213.011719 427.878906 212.84375 428.238281 212.507812 C 428.601562 212.171875 428.78125 211.710938 428.78125 211.128906 C 428.78125 210.542969 428.601562 210.085938 428.242188 209.75 C 427.886719 209.414062 427.390625 209.246094 426.761719 209.246094 Z M 425.445312 208.691406 C 424.882812 208.550781 424.445312 208.289062 424.128906 207.902344 C 423.8125 207.515625 423.65625 207.042969 423.65625 206.488281 C 423.65625 205.710938 423.933594 205.097656 424.488281 204.644531 C 425.039062 204.195312 425.800781 203.96875 426.761719 203.96875 C 427.730469 203.96875 428.488281 204.195312 429.039062 204.644531 C 429.59375 205.097656 429.867188 205.710938 429.867188 206.488281 C 429.867188 207.042969 429.710938 207.515625 429.394531 207.902344 C 429.082031 208.289062 428.644531 208.550781 428.085938 208.691406 C 428.71875 208.835938 429.210938 209.125 429.5625 209.554688 C 429.917969 209.984375 430.09375 210.507812 430.09375 211.128906 C 430.09375 212.070312 429.808594 212.796875 429.234375 213.300781 C 428.65625 213.804688 427.832031 214.054688 426.761719 214.054688 C 425.691406 214.054688 424.867188 213.804688 424.289062 213.300781 C 423.714844 212.796875 423.429688 212.070312 423.429688 211.128906 C 423.429688 210.507812 423.605469 209.984375 423.960938 209.554688 C 424.320312 209.125 424.8125 208.835938 425.445312 208.691406 Z M 424.964844 206.613281 C 424.964844 207.117188 425.121094 207.507812 425.4375 207.789062 C 425.75 208.070312 426.195312 208.210938 426.761719 208.210938 C 427.328125 208.210938 427.769531 208.070312 428.085938 207.789062 C 428.40625 207.507812 428.566406 207.117188 428.566406 206.613281 C 428.566406 206.109375 428.40625 205.714844 428.085938 205.433594 C 427.769531 205.152344 427.328125 205.011719 426.761719 205.011719 C 426.195312 205.011719 425.75 205.152344 425.4375 205.433594 C 425.121094 205.714844 424.964844 206.109375 424.964844 206.613281 Z M 424.964844 206.613281 "/>
<path style=" stroke:none;fill-rule:nonzero;fill:rgb(0%,0%,0%);fill-opacity:1;" d="M 258.921875 224.808594 L 256.285156 228.359375 L 259.054688 232.101562 L 257.644531 232.101562 L 255.519531 229.238281 L 253.398438 232.101562 L 251.984375 232.101562 L 254.820312 228.289062 L 252.226562 224.808594 L 253.640625 224.808594 L 255.574219 227.410156 L 257.507812 224.808594 Z M 258.921875 224.808594 "/>
<g clip-path="url(#clip10)" clip-rule="nonzero">
<path style="fill:none;stroke-width:0.8;stroke-linecap:square;stroke-linejoin:round;stroke:rgb(69.01961%,69.01961%,69.01961%);stroke-opacity:1;stroke-miterlimit:4;" d="M 52.160156 139.5 L 331.160156 139.5 " transform="matrix(1.333333,0,0,1.333333,0,0.000000000000014211)"/>
</g>
<path style="fill:none;stroke-width:0.8;stroke-linecap:butt;stroke-linejoin:round;stroke:rgb(0%,0%,0%);stroke-opacity:1;stroke-miterlimit:4;" d="M -0.000782013 -0.0000152588 L -3.498829 -0.0000152588 " transform="matrix(1.333333,0,0,1.333333,69.547918,186.00002)"/>
<path style=" stroke:none;fill-rule:nonzero;fill:rgb(0%,0%,0%);fill-opacity:1;" d="M 29.25 186.332031 L 37.597656 186.332031 L 37.597656 187.4375 L 29.25 187.4375 Z M 29.25 186.332031 "/>
<path style=" stroke:none;fill-rule:nonzero;fill:rgb(0%,0%,0%);fill-opacity:1;" d="M 40.664062 189.960938 L 42.8125 189.960938 L 42.8125 182.542969 L 40.472656 183.011719 L 40.472656 181.8125 L 42.800781 181.34375 L 44.113281 181.34375 L 44.113281 189.960938 L 46.261719 189.960938 L 46.261719 191.066406 L 40.664062 191.066406 Z M 40.664062 189.960938 "/>
<path style=" stroke:none;fill-rule:nonzero;fill:rgb(0%,0%,0%);fill-opacity:1;" d="M 48.917969 189.410156 L 50.292969 189.410156 L 50.292969 191.066406 L 48.917969 191.066406 Z M 48.917969 189.410156 "/>
<path style=" stroke:none;fill-rule:nonzero;fill:rgb(0%,0%,0%);fill-opacity:1;" d="M 55.96875 182.210938 C 55.292969 182.210938 54.78125 182.542969 54.441406 183.210938 C 54.101562 183.875 53.929688 184.878906 53.929688 186.214844 C 53.929688 187.546875 54.101562 188.546875 54.441406 189.214844 C 54.78125 189.878906 55.292969 190.214844 55.96875 190.214844 C 56.648438 190.214844 57.160156 189.878906 57.5 189.214844 C 57.84375 188.546875 58.015625 187.546875 58.015625 186.214844 C 58.015625 184.878906 57.84375 183.875 57.5 183.210938 C 57.160156 182.542969 56.648438 182.210938 55.96875 182.210938 Z M 55.96875 181.167969 C 57.058594 181.167969 57.890625 181.601562 58.464844 182.464844 C 59.042969 183.324219 59.328125 184.574219 59.328125 186.214844 C 59.328125 187.851562 59.042969 189.101562 58.464844 189.964844 C 57.890625 190.824219 57.058594 191.253906 55.96875 191.253906 C 54.878906 191.253906 54.046875 190.824219 53.472656 189.964844 C 52.898438 189.101562 52.609375 187.851562 52.609375 186.214844 C 52.609375 184.574219 52.898438 183.324219 53.472656 182.464844 C 54.046875 181.601562 54.878906 181.167969 55.96875 181.167969 Z M 55.96875 181.167969 "/>
<g clip-path="url(#clip11)" clip-rule="nonzero">
<path style="fill:none;stroke-width:0.8;stroke-linecap:square;stroke-linejoin:round;stroke:rgb(69.01961%,69.01961%,69.01961%);stroke-opacity:1;stroke-miterlimit:4;" d="M 52.160156 108 L 331.160156 108 " transform="matrix(1.333333,0,0,1.333333,0,0.000000000000014211)"/>
</g>
<path style="fill:none;stroke-width:0.8;stroke-linecap:butt;stroke-linejoin:round;stroke:rgb(0%,0%,0%);stroke-opacity:1;stroke-miterlimit:4;" d="M -0.000782013 -0.00000762939 L -3.498829 -0.00000762939 " transform="matrix(1.333333,0,0,1.333333,69.547918,144.00001)"/>
<path style=" stroke:none;fill-rule:nonzero;fill:rgb(0%,0%,0%);fill-opacity:1;" d="M 29.25 144.332031 L 37.597656 144.332031 L 37.597656 145.4375 L 29.25 145.4375 Z M 29.25 144.332031 "/>
<path style=" stroke:none;fill-rule:nonzero;fill:rgb(0%,0%,0%);fill-opacity:1;" d="M 43.246094 140.210938 C 42.570312 140.210938 42.0625 140.542969 41.71875 141.210938 C 41.378906 141.875 41.210938 142.878906 41.210938 144.214844 C 41.210938 145.546875 41.378906 146.546875 41.71875 147.214844 C 42.0625 147.878906 42.570312 148.214844 43.246094 148.214844 C 43.929688 148.214844 44.441406 147.878906 44.78125 147.214844 C 45.121094 146.546875 45.292969 145.546875 45.292969 144.214844 C 45.292969 142.878906 45.121094 141.875 44.78125 141.210938 C 44.441406 140.542969 43.929688 140.210938 43.246094 140.210938 Z M 43.246094 139.167969 C 44.335938 139.167969 45.167969 139.601562 45.746094 140.464844 C 46.320312 141.324219 46.605469 142.574219 46.605469 144.214844 C 46.605469 145.851562 46.320312 147.101562 45.746094 147.964844 C 45.167969 148.824219 44.335938 149.253906 43.246094 149.253906 C 42.15625 149.253906 41.324219 148.824219 40.75 147.964844 C 40.175781 147.101562 39.886719 145.851562 39.886719 144.214844 C 39.886719 142.574219 40.175781 141.324219 40.75 140.464844 C 41.324219 139.601562 42.15625 139.167969 43.246094 139.167969 Z M 43.246094 139.167969 "/>
<path style=" stroke:none;fill-rule:nonzero;fill:rgb(0%,0%,0%);fill-opacity:1;" d="M 48.917969 147.410156 L 50.292969 147.410156 L 50.292969 149.066406 L 48.917969 149.066406 Z M 48.917969 147.410156 "/>
<path style=" stroke:none;fill-rule:nonzero;fill:rgb(0%,0%,0%);fill-opacity:1;" d="M 53.171875 139.34375 L 58.332031 139.34375 L 58.332031 140.453125 L 54.375 140.453125 L 54.375 142.835938 C 54.566406 142.769531 54.753906 142.71875 54.945312 142.6875 C 55.136719 142.65625 55.328125 142.640625 55.519531 142.640625 C 56.605469 142.640625 57.464844 142.9375 58.097656 143.53125 C 58.730469 144.125 59.050781 144.929688 59.050781 145.945312 C 59.050781 146.992188 58.722656 147.804688 58.074219 148.386719 C 57.421875 148.964844 56.503906 149.253906 55.316406 149.253906 C 54.910156 149.253906 54.492188 149.21875 54.070312 149.152344 C 53.648438 149.082031 53.210938 148.976562 52.761719 148.839844 L 52.761719 147.515625 C 53.148438 147.726562 53.554688 147.886719 53.96875 147.992188 C 54.386719 148.09375 54.828125 148.148438 55.292969 148.148438 C 56.042969 148.148438 56.636719 147.949219 57.074219 147.554688 C 57.511719 147.160156 57.734375 146.625 57.734375 145.945312 C 57.734375 145.269531 57.511719 144.734375 57.074219 144.339844 C 56.636719 143.945312 56.042969 143.746094 55.292969 143.746094 C 54.941406 143.746094 54.589844 143.785156 54.238281 143.863281 C 53.890625 143.941406 53.535156 144.0625 53.171875 144.226562 Z M 53.171875 139.34375 "/>
<g clip-path="url(#clip12)" clip-rule="nonzero">
<path style="fill:none;stroke-width:0.8;stroke-linecap:square;stroke-linejoin:round;stroke:rgb(69.01961%,69.01961%,69.01961%);stroke-opacity:1;stroke-miterlimit:4;" d="M 52.160156 76.5 L 331.160156 76.5 " transform="matrix(1.333333,0,0,1.333333,0,0.000000000000014211)"/>
</g>
<path style="fill:none;stroke-width:0.8;stroke-linecap:butt;stroke-linejoin:round;stroke:rgb(0%,0%,0%);stroke-opacity:1;stroke-miterlimit:4;" d="M -0.000782013 -0.000000000000014211 L -3.498829 -0.000000000000014211 " transform="matrix(1.333333,0,0,1.333333,69.547918,102)"/>
<path style=" stroke:none;fill-rule:nonzero;fill:rgb(0%,0%,0%);fill-opacity:1;" d="M 43.246094 98.210938 C 42.570312 98.210938 42.0625 98.542969 41.722656 99.210938 C 41.378906 99.875 41.210938 100.878906 41.210938 102.214844 C 41.210938 103.546875 41.378906 104.546875 41.722656 105.214844 C 42.0625 105.878906 42.570312 106.214844 43.246094 106.214844 C 43.929688 106.214844 44.441406 105.878906 44.78125 105.214844 C 45.121094 104.546875 45.292969 103.546875 45.292969 102.214844 C 45.292969 100.878906 45.121094 99.875 44.78125 99.210938 C 44.441406 98.542969 43.929688 98.210938 43.246094 98.210938 Z M 43.246094 97.167969 C 44.339844 97.167969 45.171875 97.601562 45.746094 98.464844 C 46.320312 99.324219 46.609375 100.574219 46.609375 102.214844 C 46.609375 103.851562 46.320312 105.101562 45.746094 105.964844 C 45.171875 106.824219 44.339844 107.253906 43.246094 107.253906 C 42.160156 107.253906 41.328125 106.824219 40.753906 105.964844 C 40.175781 105.101562 39.890625 103.851562 39.890625 102.214844 C 39.890625 100.574219 40.175781 99.324219 40.753906 98.464844 C 41.328125 97.601562 42.160156 97.167969 43.246094 97.167969 Z M 43.246094 97.167969 "/>
<path style=" stroke:none;fill-rule:nonzero;fill:rgb(0%,0%,0%);fill-opacity:1;" d="M 48.917969 105.410156 L 50.292969 105.410156 L 50.292969 107.066406 L 48.917969 107.066406 Z M 48.917969 105.410156 "/>
<path style=" stroke:none;fill-rule:nonzero;fill:rgb(0%,0%,0%);fill-opacity:1;" d="M 55.96875 98.210938 C 55.292969 98.210938 54.785156 98.542969 54.441406 99.210938 C 54.101562 99.875 53.933594 100.878906 53.933594 102.214844 C 53.933594 103.546875 54.101562 104.546875 54.441406 105.214844 C 54.785156 105.878906 55.292969 106.214844 55.96875 106.214844 C 56.652344 106.214844 57.164062 105.878906 57.503906 105.214844 C 57.84375 104.546875 58.015625 103.546875 58.015625 102.214844 C 58.015625 100.878906 57.84375 99.875 57.503906 99.210938 C 57.164062 98.542969 56.652344 98.210938 55.96875 98.210938 Z M 55.96875 97.167969 C 57.058594 97.167969 57.890625 97.601562 58.46875 98.464844 C 59.042969 99.324219 59.328125 100.574219 59.328125 102.214844 C 59.328125 103.851562 59.042969 105.101562 58.46875 105.964844 C 57.890625 106.824219 57.058594 107.253906 55.96875 107.253906 C 54.878906 107.253906 54.046875 106.824219 53.472656 105.964844 C 52.898438 105.101562 52.609375 103.851562 52.609375 102.214844 C 52.609375 100.574219 52.898438 99.324219 53.472656 98.464844 C 54.046875 97.601562 54.878906 97.167969 55.96875 97.167969 Z M 55.96875 97.167969 "/>
<g clip-path="url(#clip13)" clip-rule="nonzero">
<path style="fill:none;stroke-width:0.8;stroke-linecap:square;stroke-linejoin:round;stroke:rgb(69.01961%,69.01961%,69.01961%);stroke-opacity:1;stroke-miterlimit:4;" d="M 52.160156 45 L 331.160156 45 " transform="matrix(1.333333,0,0,1.333333,0,0.000000000000014211)"/>
</g>
<path style="fill:none;stroke-width:0.8;stroke-linecap:butt;stroke-linejoin:round;stroke:rgb(0%,0%,0%);stroke-opacity:1;stroke-miterlimit:4;" d="M -0.000782013 0.0000114441 L -3.498829 0.0000114441 " transform="matrix(1.333333,0,0,1.333333,69.547918,59.999985)"/>
<path style=" stroke:none;fill-rule:nonzero;fill:rgb(0%,0%,0%);fill-opacity:1;" d="M 43.246094 56.210938 C 42.570312 56.210938 42.0625 56.542969 41.722656 57.210938 C 41.378906 57.875 41.210938 58.878906 41.210938 60.214844 C 41.210938 61.546875 41.378906 62.546875 41.722656 63.214844 C 42.0625 63.878906 42.570312 64.214844 43.246094 64.214844 C 43.929688 64.214844 44.441406 63.878906 44.78125 63.214844 C 45.121094 62.546875 45.292969 61.546875 45.292969 60.214844 C 45.292969 58.878906 45.121094 57.875 44.78125 57.210938 C 44.441406 56.542969 43.929688 56.210938 43.246094 56.210938 Z M 43.246094 55.167969 C 44.339844 55.167969 45.171875 55.601562 45.746094 56.464844 C 46.320312 57.324219 46.609375 58.574219 46.609375 60.214844 C 46.609375 61.851562 46.320312 63.101562 45.746094 63.964844 C 45.171875 64.824219 44.339844 65.253906 43.246094 65.253906 C 42.160156 65.253906 41.328125 64.824219 40.753906 63.964844 C 40.175781 63.101562 39.890625 61.851562 39.890625 60.214844 C 39.890625 58.574219 40.175781 57.324219 40.753906 56.464844 C 41.328125 55.601562 42.160156 55.167969 43.246094 55.167969 Z M 43.246094 55.167969 "/>
<path style=" stroke:none;fill-rule:nonzero;fill:rgb(0%,0%,0%);fill-opacity:1;" d="M 48.917969 63.410156 L 50.292969 63.410156 L 50.292969 65.066406 L 48.917969 65.066406 Z M 48.917969 63.410156 "/>
<path style=" stroke:none;fill-rule:nonzero;fill:rgb(0%,0%,0%);fill-opacity:1;" d="M 53.171875 55.34375 L 58.332031 55.34375 L 58.332031 56.453125 L 54.375 56.453125 L 54.375 58.835938 C 54.566406 58.769531 54.757812 58.71875 54.945312 58.6875 C 55.136719 58.65625 55.328125 58.640625 55.519531 58.640625 C 56.605469 58.640625 57.464844 58.9375 58.097656 59.53125 C 58.734375 60.125 59.050781 60.929688 59.050781 61.945312 C 59.050781 62.992188 58.726562 63.804688 58.074219 64.386719 C 57.421875 64.964844 56.503906 65.253906 55.320312 65.253906 C 54.910156 65.253906 54.496094 65.21875 54.070312 65.152344 C 53.648438 65.082031 53.210938 64.976562 52.761719 64.839844 L 52.761719 63.515625 C 53.152344 63.726562 53.554688 63.886719 53.972656 63.992188 C 54.386719 64.09375 54.828125 64.148438 55.292969 64.148438 C 56.042969 64.148438 56.636719 63.949219 57.074219 63.554688 C 57.515625 63.160156 57.734375 62.625 57.734375 61.945312 C 57.734375 61.269531 57.515625 60.734375 57.074219 60.339844 C 56.636719 59.945312 56.042969 59.746094 55.292969 59.746094 C 54.941406 59.746094 54.589844 59.785156 54.238281 59.863281 C 53.890625 59.941406 53.535156 60.0625 53.171875 60.226562 Z M 53.171875 55.34375 "/>
<g clip-path="url(#clip14)" clip-rule="nonzero">
<path style="fill:none;stroke-width:0.8;stroke-linecap:square;stroke-linejoin:round;stroke:rgb(69.01961%,69.01961%,69.01961%);stroke-opacity:1;stroke-miterlimit:4;" d="M 52.160156 13.5 L 331.160156 13.5 " transform="matrix(1.333333,0,0,1.333333,0,0.000000000000014211)"/>
</g>
<path style="fill:none;stroke-width:0.8;stroke-linecap:butt;stroke-linejoin:round;stroke:rgb(0%,0%,0%);stroke-opacity:1;stroke-miterlimit:4;" d="M -0.000782013 0.0000190735 L -3.498829 0.0000190735 " transform="matrix(1.333333,0,0,1.333333,69.547918,17.999975)"/>
<path style=" stroke:none;fill-rule:nonzero;fill:rgb(0%,0%,0%);fill-opacity:1;" d="M 40.664062 21.960938 L 42.8125 21.960938 L 42.8125 14.542969 L 40.476562 15.011719 L 40.476562 13.8125 L 42.800781 13.34375 L 44.113281 13.34375 L 44.113281 21.960938 L 46.261719 21.960938 L 46.261719 23.066406 L 40.664062 23.066406 Z M 40.664062 21.960938 "/>
<path style=" stroke:none;fill-rule:nonzero;fill:rgb(0%,0%,0%);fill-opacity:1;" d="M 48.917969 21.410156 L 50.292969 21.410156 L 50.292969 23.066406 L 48.917969 23.066406 Z M 48.917969 21.410156 "/>
<path style=" stroke:none;fill-rule:nonzero;fill:rgb(0%,0%,0%);fill-opacity:1;" d="M 55.96875 14.210938 C 55.292969 14.210938 54.785156 14.542969 54.441406 15.210938 C 54.101562 15.875 53.933594 16.878906 53.933594 18.214844 C 53.933594 19.546875 54.101562 20.546875 54.441406 21.214844 C 54.785156 21.878906 55.292969 22.214844 55.96875 22.214844 C 56.652344 22.214844 57.164062 21.878906 57.503906 21.214844 C 57.84375 20.546875 58.015625 19.546875 58.015625 18.214844 C 58.015625 16.878906 57.84375 15.875 57.503906 15.210938 C 57.164062 14.542969 56.652344 14.210938 55.96875 14.210938 Z M 55.96875 13.167969 C 57.058594 13.167969 57.890625 13.601562 58.46875 14.464844 C 59.042969 15.324219 59.328125 16.574219 59.328125 18.214844 C 59.328125 19.851562 59.042969 21.101562 58.46875 21.964844 C 57.890625 22.824219 57.058594 23.253906 55.96875 23.253906 C 54.878906 23.253906 54.046875 22.824219 53.472656 21.964844 C 52.898438 21.101562 52.609375 19.851562 52.609375 18.214844 C 52.609375 16.574219 52.898438 15.324219 53.472656 14.464844 C 54.046875 13.601562 54.878906 13.167969 55.96875 13.167969 Z M 55.96875 13.167969 "/>
<path style=" stroke:none;fill-rule:nonzero;fill:rgb(0%,0%,0%);fill-opacity:1;" d="M 10.367188 123.855469 L 12.441406 123.855469 L 12.441406 121.386719 L 13.371094 121.386719 L 13.371094 123.855469 L 17.328125 123.855469 C 17.921875 123.855469 18.304688 123.773438 18.476562 123.613281 C 18.644531 123.449219 18.730469 123.117188 18.730469 122.617188 L 18.730469 121.386719 L 19.730469 121.386719 L 19.730469 122.617188 C 19.730469 123.542969 19.558594 124.179688 19.214844 124.53125 C 18.867188 124.882812 18.242188 125.058594 17.328125 125.058594 L 13.371094 125.058594 L 13.371094 125.9375 L 12.441406 125.9375 L 12.441406 125.058594 L 10.367188 125.058594 Z M 10.367188 123.855469 "/>
<path style=" stroke:none;fill-rule:nonzero;fill:rgb(0%,0%,0%);fill-opacity:1;" d="M 16.066406 116.5 C 16.066406 117.464844 16.175781 118.136719 16.398438 118.511719 C 16.617188 118.882812 16.996094 119.070312 17.53125 119.070312 C 17.957031 119.070312 18.292969 118.929688 18.542969 118.648438 C 18.792969 118.371094 18.917969 117.988281 18.917969 117.507812 C 18.917969 116.84375 18.679688 116.308594 18.210938 115.910156 C 17.738281 115.507812 17.113281 115.304688 16.332031 115.304688 L 16.066406 115.304688 Z M 15.570312 114.109375 L 19.730469 114.109375 L 19.730469 115.304688 L 18.625 115.304688 C 19.066406 115.582031 19.394531 115.921875 19.605469 116.328125 C 19.816406 116.738281 19.921875 117.238281 19.921875 117.828125 C 19.921875 118.574219 19.710938 119.167969 19.292969 119.609375 C 18.871094 120.050781 18.3125 120.269531 17.609375 120.269531 C 16.789062 120.269531 16.171875 119.996094 15.753906 119.445312 C 15.335938 118.894531 15.128906 118.078125 15.128906 116.988281 L 15.128906 115.304688 L 15.011719 115.304688 C 14.460938 115.304688 14.03125 115.488281 13.730469 115.851562 C 13.429688 116.210938 13.277344 116.722656 13.277344 117.378906 C 13.277344 117.792969 13.328125 118.199219 13.429688 118.597656 C 13.527344 118.992188 13.679688 119.371094 13.878906 119.734375 L 12.769531 119.734375 C 12.601562 119.296875 12.476562 118.871094 12.390625 118.457031 C 12.308594 118.046875 12.265625 117.644531 12.265625 117.253906 C 12.265625 116.199219 12.539062 115.410156 13.085938 114.890625 C 13.632812 114.367188 14.460938 114.109375 15.570312 114.109375 Z M 15.570312 114.109375 "/>
<path style=" stroke:none;fill-rule:nonzero;fill:rgb(0%,0%,0%);fill-opacity:1;" d="M 15.328125 105.578125 L 19.730469 105.578125 L 19.730469 106.777344 L 15.367188 106.777344 C 14.679688 106.777344 14.164062 106.914062 13.820312 107.183594 C 13.476562 107.453125 13.304688 107.855469 13.304688 108.390625 C 13.304688 109.039062 13.511719 109.550781 13.925781 109.921875 C 14.335938 110.296875 14.898438 110.484375 15.609375 110.484375 L 19.730469 110.484375 L 19.730469 111.6875 L 12.441406 111.6875 L 12.441406 110.484375 L 13.574219 110.484375 C 13.132812 110.195312 12.804688 109.859375 12.589844 109.472656 C 12.371094 109.082031 12.265625 108.632812 12.265625 108.125 C 12.265625 107.289062 12.523438 106.65625 13.042969 106.226562 C 13.558594 105.796875 14.320312 105.578125 15.328125 105.578125 Z M 15.328125 105.578125 "/>
<path style=" stroke:none;fill-rule:nonzero;fill:rgb(0%,0%,0%);fill-opacity:1;" d="M 15.328125 97.128906 L 19.730469 97.128906 L 19.730469 98.328125 L 15.367188 98.328125 C 14.679688 98.328125 14.164062 98.460938 13.820312 98.730469 C 13.476562 99 13.304688 99.402344 13.304688 99.941406 C 13.304688 100.589844 13.511719 101.097656 13.925781 101.472656 C 14.335938 101.847656 14.898438 102.035156 15.609375 102.035156 L 19.730469 102.035156 L 19.730469 103.238281 L 9.601562 103.238281 L 9.601562 102.035156 L 13.574219 102.035156 C 13.132812 101.746094 12.804688 101.410156 12.589844 101.019531 C 12.371094 100.632812 12.265625 100.183594 12.265625 99.675781 C 12.265625 98.835938 12.523438 98.203125 13.042969 97.773438 C 13.558594 97.34375 14.320312 97.128906 15.328125 97.128906 Z M 15.328125 97.128906 "/>
<path style=" stroke:none;fill-rule:nonzero;fill:rgb(0%,0%,0%);fill-opacity:1;" d="M 9.613281 91.863281 C 10.613281 92.445312 11.597656 92.875 12.578125 93.160156 C 13.554688 93.441406 14.542969 93.582031 15.546875 93.582031 C 16.546875 93.582031 17.539062 93.441406 18.523438 93.15625 C 19.507812 92.871094 20.496094 92.441406 21.488281 91.863281 L 21.488281 92.90625 C 20.46875 93.554688 19.464844 94.042969 18.480469 94.367188 C 17.496094 94.691406 16.519531 94.851562 15.546875 94.851562 C 14.578125 94.851562 13.601562 94.691406 12.621094 94.371094 C 11.640625 94.046875 10.636719 93.558594 9.613281 92.90625 Z M 9.613281 91.863281 "/>
<path style=" stroke:none;fill-rule:nonzero;fill:rgb(0%,0%,0%);fill-opacity:1;" d="M 12.441406 83.476562 L 15.988281 86.113281 L 19.730469 83.339844 L 19.730469 84.753906 L 16.867188 86.875 L 19.730469 88.996094 L 19.730469 90.414062 L 15.917969 87.578125 L 12.441406 90.171875 L 12.441406 88.757812 L 15.039062 86.824219 L 12.441406 84.890625 Z M 12.441406 83.476562 "/>
<path style=" stroke:none;fill-rule:nonzero;fill:rgb(0%,0%,0%);fill-opacity:1;" d="M 9.613281 81.835938 L 9.613281 80.792969 C 10.636719 80.144531 11.640625 79.65625 12.621094 79.335938 C 13.601562 79.011719 14.578125 78.847656 15.546875 78.847656 C 16.519531 78.847656 17.496094 79.011719 18.480469 79.335938 C 19.464844 79.65625 20.46875 80.144531 21.488281 80.792969 L 21.488281 81.835938 C 20.496094 81.261719 19.507812 80.828125 18.523438 80.542969 C 17.539062 80.261719 16.546875 80.117188 15.546875 80.117188 C 14.542969 80.117188 13.554688 80.261719 12.578125 80.542969 C 11.597656 80.828125 10.613281 81.261719 9.613281 81.835938 Z M 9.613281 81.835938 "/>
<path style="fill:none;stroke-width:1.5;stroke-linecap:square;stroke-linejoin:round;stroke:rgb(12.156863%,46.666667%,70.588237%);stroke-opacity:1;stroke-miterlimit:4;" d="M 64.842773 139.5 L 135.032227 139.40625 L 144.603516 139.189453 L 150.984375 138.808594 L 155.768555 138.246094 L 158.958984 137.639648 L 162.149414 136.743164 L 163.746094 136.148438 L 165.339844 135.430664 L 166.936523 134.566406 L 168.530273 133.523438 L 170.126953 132.27832 L 171.720703 130.787109 L 173.317383 129.020508 L 174.911133 126.931641 L 176.507812 124.479492 L 178.101562 121.625977 L 179.698242 118.333008 L 181.291992 114.574219 L 182.888672 110.334961 L 184.482422 105.612305 L 186.079102 100.435547 L 189.269531 88.933594 L 197.244141 58.148437 L 198.837891 52.564453 L 200.43457 47.387695 L 202.02832 42.665039 L 203.625 38.425781 L 205.21875 34.666992 L 206.81543 31.374023 L 208.40918 28.520508 L 210.005859 26.068359 L 211.599609 23.979492 L 213.196289 22.209961 L 214.790039 20.72168 L 216.386719 19.476562 L 217.980469 18.433594 L 219.577148 17.569336 L 221.170898 16.851562 L 224.361328 15.767578 L 227.551758 15.029297 L 230.742188 14.52832 L 235.529297 14.06543 L 241.910156 13.754883 L 251.481445 13.576172 L 272.217773 13.505859 L 318.480469 13.5 " transform="matrix(1.333333,0,0,1.333333,0,0.000000000000014211)"/>
<path style="fill:none;stroke-width:0.8;stroke-linecap:square;stroke-linejoin:miter;stroke:rgb(0%,0%,0%);stroke-opacity:1;stroke-miterlimit:4;" d="M 52.160156 145.798828 L 52.160156 7.201172 " transform="matrix(1.333333,0,0,1.333333,0,0.000000000000014211)"/>
<path style="fill:none;stroke-width:0.8;stroke-linecap:square;stroke-linejoin:miter;stroke:rgb(0%,0%,0%);stroke-opacity:1;stroke-miterlimit:4;" d="M 331.160156 145.798828 L 331.160156 7.201172 " transform="matrix(1.333333,0,0,1.333333,0,0.000000000000014211)"/>
<path style="fill:none;stroke-width:0.8;stroke-linecap:square;stroke-linejoin:miter;stroke:rgb(0%,0%,0%);stroke-opacity:1;stroke-miterlimit:4;" d="M 52.160156 145.798828 L 331.160156 145.798828 " transform="matrix(1.333333,0,0,1.333333,0,0.000000000000014211)"/>
<path style="fill:none;stroke-width:0.8;stroke-linecap:square;stroke-linejoin:miter;stroke:rgb(0%,0%,0%);stroke-opacity:1;stroke-miterlimit:4;" d="M 52.160156 7.201172 L 331.160156 7.201172 " transform="matrix(1.333333,0,0,1.333333,0,0.000000000000014211)"/>
</g>
</svg>
