<?xml version="1.0" encoding="UTF-8"?>
<svg xmlns="http://www.w3.org/2000/svg" xmlns:xlink="http://www.w3.org/1999/xlink" width="448.458333" height="244.474996" viewBox="0 0 448.458333 244.474996" version="1.1">
<defs>
<clipPath id="clip1">
  <path d="M 83 9.601562 L 85 9.601562 L 85 194.398438 L 83 194.398438 Z M 83 9.601562 "/>
</clipPath>
<clipPath id="clip2">
  <path d="M 125 9.601562 L 128 9.601562 L 128 194.398438 L 125 194.398438 Z M 125 9.601562 "/>
</clipPath>
<clipPath id="clip3">
  <path d="M 168 9.601562 L 170 9.601562 L 170 194.398438 L 168 194.398438 Z M 168 9.601562 "/>
</clipPath>
<clipPath id="clip4">
  <path d="M 210 9.601562 L 213 9.601562 L 213 194.398438 L 210 194.398438 Z M 210 9.601562 "/>
</clipPath>
<clipPath id="clip5">
  <path d="M 253 9.601562 L 255 9.601562 L 255 194.398438 L 253 194.398438 Z M 253 9.601562 "/>
</clipPath>
<clipPath id="clip6">
  <path d="M 295 9.601562 L 298 9.601562 L 298 194.398438 L 295 194.398438 Z M 295 9.601562 "/>
</clipPath>
<clipPath id="clip7">
  <path d="M 338 9.601562 L 340 9.601562 L 340 194.398438 L 338 194.398438 Z M 338 9.601562 "/>
</clipPath>
<clipPath id="clip8">
  <path d="M 380 9.601562 L 383 9.601562 L 383 194.398438 L 380 194.398438 Z M 380 9.601562 "/>
</clipPath>
<clipPath id="clip9">
  <path d="M 423 9.601562 L 425 9.601562 L 425 194.398438 L 423 194.398438 Z M 423 9.601562 "/>
</clipPath>
<clipPath id="clip10">
  <path d="M 66.859375 185 L 438.859375 185 L 438.859375 187 L 66.859375 187 Z M 66.859375 185 "/>
</clipPath>
<clipPath id="clip11">
  <path d="M 66.859375 151 L 438.859375 151 L 438.859375 154 L 66.859375 154 Z M 66.859375 151 "/>
</clipPath>
<clipPath id="clip12">
  <path d="M 66.859375 118 L 438.859375 118 L 438.859375 120 L 66.859375 120 Z M 66.859375 118 "/>
</clipPath>
<clipPath id="clip13">
  <path d="M 66.859375 84 L 438.859375 84 L 438.859375 87 L 66.859375 87 Z M 66.859375 84 "/>
</clipPath>
<clipPath id="clip14">
  <path d="M 66.859375 50 L 438.859375 50 L 438.859375 53 L 66.859375 53 Z M 66.859375 50 "/>
</clipPath>
<clipPath id="clip15">
  <path d="M 66.859375 17 L 438.859375 17 L 438.859375 19 L 66.859375 19 Z M 66.859375 17 "/>
</clipPath>
</defs>
<g id="surface1">
<path style=" stroke:none;fill-rule:nonzero;fill:rgb(100%,100%,100%);fill-opacity:1;" d="M 0 244.476562 L 448.457031 244.476562 L 448.457031 0 L 0 0 Z M 0 244.476562 "/>
<path style=" stroke:none;fill-rule:nonzero;fill:rgb(100%,100%,100%);fill-opacity:1;" d="M 66.859375 194.398438 L 438.859375 194.398438 L 438.859375 9.601562 L 66.859375 9.601562 Z M 66.859375 194.398438 "/>
<g clip-path="url(#clip1)" clip-rule="nonzero">
<path style="fill:none;stroke-width:0.8;stroke-linecap:square;stroke-linejoin:round;stroke:rgb(69.01961%,69.01961%,69.01961%);stroke-opacity:1;stroke-miterlimit:4;" d="M 62.824219 145.798828 L 62.824219 7.201172 " transform="matrix(1.333333,0,0,1.333333,0,0.000000000000014211)"/>
</g>
<path style="fill:none;stroke-width:0.8;stroke-linecap:butt;stroke-linejoin:round;stroke:rgb(0%,0%,0%);stroke-opacity:1;stroke-miterlimit:4;" d="M -0.0013504 -0.00117493 L -0.0013504 3.499802 " transform="matrix(1.333333,0,0,1.333333,83.767426,194.400004)"/>
<path style=" stroke:none;fill-rule:nonzero;fill:rgb(0%,0%,0%);fill-opacity:1;" d="M 75.351562 209.132812 L 83.699219 209.132812 L 83.699219 210.238281 L 75.351562 210.238281 Z M 75.351562 209.132812 "/>
<path style=" stroke:none;fill-rule:nonzero;fill:rgb(0%,0%,0%);fill-opacity:1;" d="M 89.347656 209.246094 C 88.722656 209.246094 88.230469 209.414062 87.875 209.75 C 87.515625 210.085938 87.339844 210.542969 87.339844 211.128906 C 87.339844 211.714844 87.515625 212.175781 87.875 212.511719 C 88.230469 212.84375 88.722656 213.011719 89.347656 213.011719 C 89.972656 213.011719 90.464844 212.84375 90.824219 212.507812 C 91.1875 212.171875 91.367188 211.710938 91.367188 211.128906 C 91.367188 210.542969 91.1875 210.085938 90.828125 209.75 C 90.472656 209.414062 89.980469 209.246094 89.347656 209.246094 Z M 88.035156 208.691406 C 87.46875 208.550781 87.03125 208.289062 86.714844 207.902344 C 86.402344 207.515625 86.246094 207.042969 86.246094 206.488281 C 86.246094 205.710938 86.519531 205.097656 87.074219 204.644531 C 87.628906 204.195312 88.386719 203.96875 89.347656 203.96875 C 90.316406 203.96875 91.078125 204.195312 91.628906 204.644531 C 92.179688 205.097656 92.453125 205.710938 92.453125 206.488281 C 92.453125 207.042969 92.296875 207.515625 91.980469 207.902344 C 91.667969 208.289062 91.230469 208.550781 90.671875 208.691406 C 91.304688 208.835938 91.796875 209.125 92.152344 209.554688 C 92.503906 209.984375 92.683594 210.507812 92.683594 211.128906 C 92.683594 212.070312 92.394531 212.796875 91.820312 213.300781 C 91.246094 213.804688 90.421875 214.054688 89.347656 214.054688 C 88.277344 214.054688 87.453125 213.804688 86.878906 213.300781 C 86.304688 212.796875 86.015625 212.070312 86.015625 211.128906 C 86.015625 210.507812 86.191406 209.984375 86.546875 209.554688 C 86.90625 209.125 87.402344 208.835938 88.035156 208.691406 Z M 87.554688 206.613281 C 87.554688 207.117188 87.710938 207.507812 88.023438 207.789062 C 88.339844 208.070312 88.78125 208.210938 89.347656 208.210938 C 89.914062 208.210938 90.355469 208.070312 90.671875 207.789062 C 90.992188 207.507812 91.152344 207.117188 91.152344 206.613281 C 91.152344 206.109375 90.992188 205.714844 90.671875 205.433594 C 90.355469 205.152344 89.914062 205.011719 89.347656 205.011719 C 88.78125 205.011719 88.339844 205.152344 88.023438 205.433594 C 87.710938 205.714844 87.554688 206.109375 87.554688 206.613281 Z M 87.554688 206.613281 "/>
<g clip-path="url(#clip2)" clip-rule="nonzero">
<path style="fill:none;stroke-width:0.8;stroke-linecap:square;stroke-linejoin:round;stroke:rgb(69.01961%,69.01961%,69.01961%);stroke-opacity:1;stroke-miterlimit:4;" d="M 94.728516 145.798828 L 94.728516 7.201172 " transform="matrix(1.333333,0,0,1.333333,0,0.000000000000014211)"/>
</g>
<path style="fill:none;stroke-width:0.8;stroke-linecap:butt;stroke-linejoin:round;stroke:rgb(0%,0%,0%);stroke-opacity:1;stroke-miterlimit:4;" d="M -0.000999451 -0.00117493 L -0.000999451 3.499802 " transform="matrix(1.333333,0,0,1.333333,126.30602,194.400004)"/>
<path style=" stroke:none;fill-rule:nonzero;fill:rgb(0%,0%,0%);fill-opacity:1;" d="M 117.890625 209.132812 L 126.234375 209.132812 L 126.234375 210.238281 L 117.890625 210.238281 Z M 117.890625 209.132812 "/>
<path style=" stroke:none;fill-rule:nonzero;fill:rgb(0%,0%,0%);fill-opacity:1;" d="M 132.050781 208.480469 C 131.460938 208.480469 130.992188 208.683594 130.648438 209.085938 C 130.304688 209.492188 130.132812 210.042969 130.132812 210.746094 C 130.132812 211.445312 130.304688 211.996094 130.648438 212.402344 C 130.992188 212.808594 131.460938 213.011719 132.050781 213.011719 C 132.640625 213.011719 133.109375 212.808594 133.453125 212.402344 C 133.796875 211.996094 133.96875 211.445312 133.96875 210.746094 C 133.96875 210.042969 133.796875 209.492188 133.453125 209.085938 C 133.109375 208.683594 132.640625 208.480469 132.050781 208.480469 Z M 134.664062 204.359375 L 134.664062 205.554688 C 134.332031 205.402344 134 205.28125 133.664062 205.199219 C 133.324219 205.117188 132.992188 205.074219 132.664062 205.074219 C 131.792969 205.074219 131.132812 205.367188 130.671875 205.953125 C 130.214844 206.539062 129.953125 207.425781 129.890625 208.609375 C 130.144531 208.234375 130.464844 207.941406 130.851562 207.742188 C 131.238281 207.539062 131.664062 207.441406 132.128906 207.441406 C 133.105469 207.441406 133.875 207.734375 134.445312 208.328125 C 135.011719 208.921875 135.292969 209.726562 135.292969 210.746094 C 135.292969 211.746094 135 212.546875 134.40625 213.148438 C 133.816406 213.753906 133.03125 214.054688 132.050781 214.054688 C 130.925781 214.054688 130.066406 213.625 129.472656 212.761719 C 128.878906 211.898438 128.582031 210.652344 128.582031 209.015625 C 128.582031 207.476562 128.945312 206.253906 129.675781 205.339844 C 130.402344 204.425781 131.382812 203.96875 132.609375 203.96875 C 132.941406 203.96875 133.273438 204 133.609375 204.066406 C 133.945312 204.132812 134.296875 204.230469 134.664062 204.359375 Z M 134.664062 204.359375 "/>
<g clip-path="url(#clip3)" clip-rule="nonzero">
<path style="fill:none;stroke-width:0.8;stroke-linecap:square;stroke-linejoin:round;stroke:rgb(69.01961%,69.01961%,69.01961%);stroke-opacity:1;stroke-miterlimit:4;" d="M 126.632812 145.798828 L 126.632812 7.201172 " transform="matrix(1.333333,0,0,1.333333,0,0.000000000000014211)"/>
</g>
<path style="fill:none;stroke-width:0.8;stroke-linecap:butt;stroke-linejoin:round;stroke:rgb(0%,0%,0%);stroke-opacity:1;stroke-miterlimit:4;" d="M -0.000640869 -0.00117493 L -0.000640869 3.499802 " transform="matrix(1.333333,0,0,1.333333,168.844604,194.400004)"/>
<path style=" stroke:none;fill-rule:nonzero;fill:rgb(0%,0%,0%);fill-opacity:1;" d="M 160.429688 209.132812 L 168.773438 209.132812 L 168.773438 210.238281 L 160.429688 210.238281 Z M 160.429688 209.132812 "/>
<path style=" stroke:none;fill-rule:nonzero;fill:rgb(0%,0%,0%);fill-opacity:1;" d="M 175.226562 205.289062 L 171.90625 210.480469 L 175.226562 210.480469 Z M 174.882812 204.144531 L 176.535156 204.144531 L 176.535156 210.480469 L 177.921875 210.480469 L 177.921875 211.574219 L 176.535156 211.574219 L 176.535156 213.863281 L 175.226562 213.863281 L 175.226562 211.574219 L 170.839844 211.574219 L 170.839844 210.304688 Z M 174.882812 204.144531 "/>
<g clip-path="url(#clip4)" clip-rule="nonzero">
<path style="fill:none;stroke-width:0.8;stroke-linecap:square;stroke-linejoin:round;stroke:rgb(69.01961%,69.01961%,69.01961%);stroke-opacity:1;stroke-miterlimit:4;" d="M 158.537109 145.798828 L 158.537109 7.201172 " transform="matrix(1.333333,0,0,1.333333,0,0.000000000000014211)"/>
</g>
<path style="fill:none;stroke-width:0.8;stroke-linecap:butt;stroke-linejoin:round;stroke:rgb(0%,0%,0%);stroke-opacity:1;stroke-miterlimit:4;" d="M -0.000289917 -0.00117493 L -0.000289917 3.499802 " transform="matrix(1.333333,0,0,1.333333,211.383199,194.400004)"/>
<path style=" stroke:none;fill-rule:nonzero;fill:rgb(0%,0%,0%);fill-opacity:1;" d="M 202.96875 209.132812 L 211.3125 209.132812 L 211.3125 210.238281 L 202.96875 210.238281 Z M 202.96875 209.132812 "/>
<path style=" stroke:none;fill-rule:nonzero;fill:rgb(0%,0%,0%);fill-opacity:1;" d="M 215.285156 212.757812 L 219.875 212.757812 L 219.875 213.863281 L 213.703125 213.863281 L 213.703125 212.757812 C 214.203125 212.242188 214.882812 211.546875 215.742188 210.679688 C 216.605469 209.808594 217.148438 209.246094 217.367188 208.992188 C 217.789062 208.523438 218.082031 208.121094 218.25 207.792969 C 218.417969 207.464844 218.5 207.144531 218.5 206.828125 C 218.5 206.308594 218.320312 205.890625 217.957031 205.566406 C 217.59375 205.238281 217.125 205.074219 216.542969 205.074219 C 216.128906 205.074219 215.695312 205.148438 215.234375 205.289062 C 214.777344 205.433594 214.289062 205.648438 213.769531 205.941406 L 213.769531 204.613281 C 214.296875 204.398438 214.792969 204.238281 215.25 204.132812 C 215.714844 204.023438 216.132812 203.96875 216.515625 203.96875 C 217.523438 203.96875 218.328125 204.222656 218.925781 204.726562 C 219.523438 205.226562 219.824219 205.898438 219.824219 206.742188 C 219.824219 207.140625 219.746094 207.519531 219.597656 207.878906 C 219.449219 208.234375 219.175781 208.65625 218.78125 209.144531 C 218.671875 209.269531 218.328125 209.632812 217.746094 210.234375 C 217.164062 210.835938 216.34375 211.679688 215.285156 212.757812 Z M 215.285156 212.757812 "/>
<g clip-path="url(#clip5)" clip-rule="nonzero">
<path style="fill:none;stroke-width:0.8;stroke-linecap:square;stroke-linejoin:round;stroke:rgb(69.01961%,69.01961%,69.01961%);stroke-opacity:1;stroke-miterlimit:4;" d="M 190.441406 145.798828 L 190.441406 7.201172 " transform="matrix(1.333333,0,0,1.333333,0,0.000000000000014211)"/>
</g>
<path style="fill:none;stroke-width:0.8;stroke-linecap:butt;stroke-linejoin:round;stroke:rgb(0%,0%,0%);stroke-opacity:1;stroke-miterlimit:4;" d="M 0.0000610352 -0.00117493 L 0.0000610352 3.499802 " transform="matrix(1.333333,0,0,1.333333,253.921794,194.400004)"/>
<path style=" stroke:none;fill-rule:nonzero;fill:rgb(0%,0%,0%);fill-opacity:1;" d="M 253.917969 205.011719 C 253.242188 205.011719 252.730469 205.34375 252.390625 206.011719 C 252.050781 206.675781 251.878906 207.675781 251.878906 209.015625 C 251.878906 210.347656 252.050781 211.347656 252.390625 212.011719 C 252.730469 212.679688 253.242188 213.011719 253.917969 213.011719 C 254.597656 213.011719 255.109375 212.679688 255.449219 212.011719 C 255.792969 211.347656 255.964844 210.347656 255.964844 209.015625 C 255.964844 207.675781 255.792969 206.675781 255.449219 206.011719 C 255.109375 205.34375 254.597656 205.011719 253.917969 205.011719 Z M 253.917969 203.96875 C 255.007812 203.96875 255.839844 204.398438 256.414062 205.261719 C 256.992188 206.125 257.277344 207.375 257.277344 209.015625 C 257.277344 210.652344 256.992188 211.898438 256.414062 212.761719 C 255.839844 213.625 255.007812 214.054688 253.917969 214.054688 C 252.828125 214.054688 251.996094 213.625 251.421875 212.761719 C 250.847656 211.898438 250.558594 210.652344 250.558594 209.015625 C 250.558594 207.375 250.847656 206.125 251.421875 205.261719 C 251.996094 204.398438 252.828125 203.96875 253.917969 203.96875 Z M 253.917969 203.96875 "/>
<g clip-path="url(#clip6)" clip-rule="nonzero">
<path style="fill:none;stroke-width:0.8;stroke-linecap:square;stroke-linejoin:round;stroke:rgb(69.01961%,69.01961%,69.01961%);stroke-opacity:1;stroke-miterlimit:4;" d="M 222.345703 145.798828 L 222.345703 7.201172 " transform="matrix(1.333333,0,0,1.333333,0,0.000000000000014211)"/>
</g>
<path style="fill:none;stroke-width:0.8;stroke-linecap:butt;stroke-linejoin:round;stroke:rgb(0%,0%,0%);stroke-opacity:1;stroke-miterlimit:4;" d="M 0.000411987 -0.00117493 L 0.000411987 3.499802 " transform="matrix(1.333333,0,0,1.333333,296.460388,194.400004)"/>
<path style=" stroke:none;fill-rule:nonzero;fill:rgb(0%,0%,0%);fill-opacity:1;" d="M 294.777344 212.757812 L 299.367188 212.757812 L 299.367188 213.863281 L 293.195312 213.863281 L 293.195312 212.757812 C 293.695312 212.242188 294.375 211.546875 295.234375 210.679688 C 296.097656 209.808594 296.640625 209.246094 296.859375 208.992188 C 297.28125 208.523438 297.574219 208.121094 297.742188 207.792969 C 297.910156 207.464844 297.992188 207.144531 297.992188 206.828125 C 297.992188 206.308594 297.8125 205.890625 297.449219 205.566406 C 297.085938 205.238281 296.617188 205.074219 296.035156 205.074219 C 295.621094 205.074219 295.183594 205.148438 294.726562 205.289062 C 294.269531 205.433594 293.78125 205.648438 293.261719 205.941406 L 293.261719 204.613281 C 293.789062 204.398438 294.285156 204.238281 294.742188 204.132812 C 295.203125 204.023438 295.625 203.96875 296.007812 203.96875 C 297.015625 203.96875 297.816406 204.222656 298.417969 204.726562 C 299.015625 205.226562 299.316406 205.898438 299.316406 206.742188 C 299.316406 207.140625 299.238281 207.519531 299.089844 207.878906 C 298.941406 208.234375 298.667969 208.65625 298.273438 209.144531 C 298.164062 209.269531 297.820312 209.632812 297.238281 210.234375 C 296.65625 210.835938 295.835938 211.679688 294.777344 212.757812 Z M 294.777344 212.757812 "/>
<g clip-path="url(#clip7)" clip-rule="nonzero">
<path style="fill:none;stroke-width:0.8;stroke-linecap:square;stroke-linejoin:round;stroke:rgb(69.01961%,69.01961%,69.01961%);stroke-opacity:1;stroke-miterlimit:4;" d="M 254.25 145.798828 L 254.25 7.201172 " transform="matrix(1.333333,0,0,1.333333,0,0.000000000000014211)"/>
</g>
<path style="fill:none;stroke-width:0.8;stroke-linecap:butt;stroke-linejoin:round;stroke:rgb(0%,0%,0%);stroke-opacity:1;stroke-miterlimit:4;" d="M 0.000762939 -0.00117493 L 0.000762939 3.499802 " transform="matrix(1.333333,0,0,1.333333,338.998983,194.400004)"/>
<path style=" stroke:none;fill-rule:nonzero;fill:rgb(0%,0%,0%);fill-opacity:1;" d="M 339.796875 205.289062 L 336.476562 210.480469 L 339.796875 210.480469 Z M 339.449219 204.144531 L 341.105469 204.144531 L 341.105469 210.480469 L 342.492188 210.480469 L 342.492188 211.574219 L 341.105469 211.574219 L 341.105469 213.863281 L 339.796875 213.863281 L 339.796875 211.574219 L 335.410156 211.574219 L 335.410156 210.304688 Z M 339.449219 204.144531 "/>
<g clip-path="url(#clip8)" clip-rule="nonzero">
<path style="fill:none;stroke-width:0.8;stroke-linecap:square;stroke-linejoin:round;stroke:rgb(69.01961%,69.01961%,69.01961%);stroke-opacity:1;stroke-miterlimit:4;" d="M 286.154297 145.798828 L 286.154297 7.201172 " transform="matrix(1.333333,0,0,1.333333,0,0.000000000000014211)"/>
</g>
<path style="fill:none;stroke-width:0.8;stroke-linecap:butt;stroke-linejoin:round;stroke:rgb(0%,0%,0%);stroke-opacity:1;stroke-miterlimit:4;" d="M 0.00112915 -0.00117493 L 0.00112915 3.499802 " transform="matrix(1.333333,0,0,1.333333,381.537557,194.400004)"/>
<path style=" stroke:none;fill-rule:nonzero;fill:rgb(0%,0%,0%);fill-opacity:1;" d="M 381.699219 208.480469 C 381.109375 208.480469 380.640625 208.683594 380.292969 209.085938 C 379.949219 209.492188 379.777344 210.042969 379.777344 210.746094 C 379.777344 211.445312 379.949219 211.996094 380.292969 212.402344 C 380.640625 212.808594 381.109375 213.011719 381.699219 213.011719 C 382.289062 213.011719 382.753906 212.808594 383.101562 212.402344 C 383.445312 211.996094 383.617188 211.445312 383.617188 210.746094 C 383.617188 210.042969 383.445312 209.492188 383.101562 209.085938 C 382.753906 208.683594 382.289062 208.480469 381.699219 208.480469 Z M 384.308594 204.359375 L 384.308594 205.554688 C 383.976562 205.402344 383.644531 205.28125 383.308594 205.199219 C 382.972656 205.117188 382.640625 205.074219 382.308594 205.074219 C 381.441406 205.074219 380.777344 205.367188 380.320312 205.953125 C 379.863281 206.539062 379.601562 207.425781 379.535156 208.609375 C 379.792969 208.234375 380.113281 207.941406 380.496094 207.742188 C 380.886719 207.539062 381.3125 207.441406 381.773438 207.441406 C 382.75 207.441406 383.523438 207.734375 384.089844 208.328125 C 384.65625 208.921875 384.941406 209.726562 384.941406 210.746094 C 384.941406 211.746094 384.644531 212.546875 384.054688 213.148438 C 383.464844 213.753906 382.679688 214.054688 381.699219 214.054688 C 380.574219 214.054688 379.714844 213.625 379.117188 212.761719 C 378.523438 211.898438 378.226562 210.652344 378.226562 209.015625 C 378.226562 207.476562 378.589844 206.253906 379.320312 205.339844 C 380.050781 204.425781 381.027344 203.96875 382.257812 203.96875 C 382.585938 203.96875 382.921875 204 383.257812 204.066406 C 383.59375 204.132812 383.941406 204.230469 384.308594 204.359375 Z M 384.308594 204.359375 "/>
<g clip-path="url(#clip9)" clip-rule="nonzero">
<path style="fill:none;stroke-width:0.8;stroke-linecap:square;stroke-linejoin:round;stroke:rgb(69.01961%,69.01961%,69.01961%);stroke-opacity:1;stroke-miterlimit:4;" d="M 318.055664 145.798828 L 318.055664 7.201172 " transform="matrix(1.333333,0,0,1.333333,0,0.000000000000014211)"/>
</g>
<path style="fill:none;stroke-width:0.8;stroke-linecap:butt;stroke-linejoin:round;stroke:rgb(0%,0%,0%);stroke-opacity:1;stroke-miterlimit:4;" d="M 0.00146484 -0.00117493 L 0.00146484 3.499802 " transform="matrix(1.333333,0,0,1.333333,424.076172,194.400004)"/>
<path style=" stroke:none;fill-rule:nonzero;fill:rgb(0%,0%,0%);fill-opacity:1;" d="M 424.070312 209.246094 C 423.445312 209.246094 422.957031 209.414062 422.597656 209.75 C 422.238281 210.085938 422.0625 210.542969 422.0625 211.128906 C 422.0625 211.714844 422.238281 212.175781 422.597656 212.511719 C 422.957031 212.84375 423.445312 213.011719 424.070312 213.011719 C 424.695312 213.011719 425.1875 212.84375 425.550781 212.507812 C 425.910156 212.171875 426.089844 211.710938 426.089844 211.128906 C 426.089844 210.542969 425.910156 210.085938 425.554688 209.75 C 425.195312 209.414062 424.703125 209.246094 424.070312 209.246094 Z M 422.757812 208.691406 C 422.195312 208.550781 421.753906 208.289062 421.4375 207.902344 C 421.125 207.515625 420.96875 207.042969 420.96875 206.488281 C 420.96875 205.710938 421.246094 205.097656 421.796875 204.644531 C 422.351562 204.195312 423.109375 203.96875 424.070312 203.96875 C 425.039062 203.96875 425.800781 204.195312 426.351562 204.644531 C 426.902344 205.097656 427.179688 205.710938 427.179688 206.488281 C 427.179688 207.042969 427.019531 207.515625 426.707031 207.902344 C 426.390625 208.289062 425.953125 208.550781 425.394531 208.691406 C 426.027344 208.835938 426.519531 209.125 426.875 209.554688 C 427.226562 209.984375 427.40625 210.507812 427.40625 211.128906 C 427.40625 212.070312 427.117188 212.796875 426.542969 213.300781 C 425.96875 213.804688 425.144531 214.054688 424.070312 214.054688 C 423 214.054688 422.175781 213.804688 421.601562 213.300781 C 421.027344 212.796875 420.738281 212.070312 420.738281 211.128906 C 420.738281 210.507812 420.917969 209.984375 421.273438 209.554688 C 421.628906 209.125 422.125 208.835938 422.757812 208.691406 Z M 422.277344 206.613281 C 422.277344 207.117188 422.433594 207.507812 422.746094 207.789062 C 423.0625 208.070312 423.503906 208.210938 424.070312 208.210938 C 424.636719 208.210938 425.078125 208.070312 425.398438 207.789062 C 425.714844 207.507812 425.875 207.117188 425.875 206.613281 C 425.875 206.109375 425.714844 205.714844 425.398438 205.433594 C 425.078125 205.152344 424.636719 205.011719 424.070312 205.011719 C 423.503906 205.011719 423.0625 205.152344 422.746094 205.433594 C 422.433594 205.714844 422.277344 206.109375 422.277344 206.613281 Z M 422.277344 206.613281 "/>
<path style=" stroke:none;fill-rule:nonzero;fill:rgb(0%,0%,0%);fill-opacity:1;" d="M 256.230469 224.808594 L 253.59375 228.359375 L 256.367188 232.101562 L 254.953125 232.101562 L 252.832031 229.238281 L 250.710938 232.101562 L 249.296875 232.101562 L 252.128906 228.289062 L 249.539062 224.808594 L 250.949219 224.808594 L 252.882812 227.410156 L 254.816406 224.808594 Z M 256.230469 224.808594 "/>
<g clip-path="url(#clip10)" clip-rule="nonzero">
<path style="fill:none;stroke-width:0.8;stroke-linecap:square;stroke-linejoin:round;stroke:rgb(69.01961%,69.01961%,69.01961%);stroke-opacity:1;stroke-miterlimit:4;" d="M 50.144531 139.669922 L 329.144531 139.669922 " transform="matrix(1.333333,0,0,1.333333,0,0.000000000000014211)"/>
</g>
<path style="fill:none;stroke-width:0.8;stroke-linecap:butt;stroke-linejoin:round;stroke:rgb(0%,0%,0%);stroke-opacity:1;stroke-miterlimit:4;" d="M 0.000782013 0.000732422 L -3.500195 0.000732422 " transform="matrix(1.333333,0,0,1.333333,66.858332,186.225586)"/>
<path style=" stroke:none;fill-rule:nonzero;fill:rgb(0%,0%,0%);fill-opacity:1;" d="M 32.074219 182.4375 C 31.398438 182.4375 30.890625 182.769531 30.546875 183.4375 C 30.207031 184.101562 30.039062 185.105469 30.039062 186.441406 C 30.039062 187.773438 30.207031 188.773438 30.546875 189.4375 C 30.890625 190.105469 31.398438 190.4375 32.074219 190.4375 C 32.757812 190.4375 33.269531 190.105469 33.609375 189.4375 C 33.949219 188.773438 34.121094 187.773438 34.121094 186.441406 C 34.121094 185.105469 33.949219 184.101562 33.609375 183.4375 C 33.269531 182.769531 32.757812 182.4375 32.074219 182.4375 Z M 32.074219 181.394531 C 33.164062 181.394531 33.996094 181.828125 34.574219 182.6875 C 35.148438 183.550781 35.433594 184.800781 35.433594 186.441406 C 35.433594 188.078125 35.148438 189.328125 34.574219 190.1875 C 33.996094 191.050781 33.164062 191.480469 32.074219 191.480469 C 30.984375 191.480469 30.152344 191.050781 29.578125 190.1875 C 29.003906 189.328125 28.714844 188.078125 28.714844 186.441406 C 28.714844 184.800781 29.003906 183.550781 29.578125 182.6875 C 30.152344 181.828125 30.984375 181.394531 32.074219 181.394531 Z M 32.074219 181.394531 "/>
<path style=" stroke:none;fill-rule:nonzero;fill:rgb(0%,0%,0%);fill-opacity:1;" d="M 37.746094 189.636719 L 39.121094 189.636719 L 39.121094 191.292969 L 37.746094 191.292969 Z M 37.746094 189.636719 "/>
<path style=" stroke:none;fill-rule:nonzero;fill:rgb(0%,0%,0%);fill-opacity:1;" d="M 44.796875 182.4375 C 44.121094 182.4375 43.609375 182.769531 43.269531 183.4375 C 42.929688 184.101562 42.757812 185.105469 42.757812 186.441406 C 42.757812 187.773438 42.929688 188.773438 43.269531 189.4375 C 43.609375 190.105469 44.121094 190.4375 44.796875 190.4375 C 45.476562 190.4375 45.988281 190.105469 46.328125 189.4375 C 46.671875 188.773438 46.84375 187.773438 46.84375 186.441406 C 46.84375 185.105469 46.671875 184.101562 46.328125 183.4375 C 45.988281 182.769531 45.476562 182.4375 44.796875 182.4375 Z M 44.796875 181.394531 C 45.886719 181.394531 46.71875 181.828125 47.292969 182.6875 C 47.871094 183.550781 48.15625 184.800781 48.15625 186.441406 C 48.15625 188.078125 47.871094 189.328125 47.292969 190.1875 C 46.71875 191.050781 45.886719 191.480469 44.796875 191.480469 C 43.707031 191.480469 42.875 191.050781 42.300781 190.1875 C 41.726562 189.328125 41.4375 188.078125 41.4375 186.441406 C 41.4375 184.800781 41.726562 183.550781 42.300781 182.6875 C 42.875 181.828125 43.707031 181.394531 44.796875 181.394531 Z M 44.796875 181.394531 "/>
<path style=" stroke:none;fill-rule:nonzero;fill:rgb(0%,0%,0%);fill-opacity:1;" d="M 53.28125 182.4375 C 52.601562 182.4375 52.09375 182.769531 51.753906 183.4375 C 51.410156 184.101562 51.242188 185.105469 51.242188 186.441406 C 51.242188 187.773438 51.410156 188.773438 51.753906 189.4375 C 52.09375 190.105469 52.601562 190.4375 53.28125 190.4375 C 53.960938 190.4375 54.472656 190.105469 54.8125 189.4375 C 55.15625 188.773438 55.324219 187.773438 55.324219 186.441406 C 55.324219 185.105469 55.15625 184.101562 54.8125 183.4375 C 54.472656 182.769531 53.960938 182.4375 53.28125 182.4375 Z M 53.28125 181.394531 C 54.371094 181.394531 55.203125 181.828125 55.777344 182.6875 C 56.351562 183.550781 56.640625 184.800781 56.640625 186.441406 C 56.640625 188.078125 56.351562 189.328125 55.777344 190.1875 C 55.203125 191.050781 54.371094 191.480469 53.28125 191.480469 C 52.191406 191.480469 51.359375 191.050781 50.785156 190.1875 C 50.207031 189.328125 49.921875 188.078125 49.921875 186.441406 C 49.921875 184.800781 50.207031 183.550781 50.785156 182.6875 C 51.359375 181.828125 52.191406 181.394531 53.28125 181.394531 Z M 53.28125 181.394531 "/>
<g clip-path="url(#clip11)" clip-rule="nonzero">
<path style="fill:none;stroke-width:0.8;stroke-linecap:square;stroke-linejoin:round;stroke:rgb(69.01961%,69.01961%,69.01961%);stroke-opacity:1;stroke-miterlimit:4;" d="M 50.144531 114.436523 L 329.144531 114.436523 " transform="matrix(1.333333,0,0,1.333333,0,0.000000000000014211)"/>
</g>
<path style="fill:none;stroke-width:0.8;stroke-linecap:butt;stroke-linejoin:round;stroke:rgb(0%,0%,0%);stroke-opacity:1;stroke-miterlimit:4;" d="M 0.000782013 0.00117493 L -3.500195 0.00117493 " transform="matrix(1.333333,0,0,1.333333,66.858332,152.580465)"/>
<path style=" stroke:none;fill-rule:nonzero;fill:rgb(0%,0%,0%);fill-opacity:1;" d="M 32.074219 148.792969 C 31.398438 148.792969 30.890625 149.125 30.546875 149.792969 C 30.207031 150.457031 30.039062 151.457031 30.039062 152.796875 C 30.039062 154.128906 30.207031 155.128906 30.546875 155.792969 C 30.890625 156.460938 31.398438 156.792969 32.074219 156.792969 C 32.757812 156.792969 33.269531 156.460938 33.609375 155.792969 C 33.949219 155.128906 34.121094 154.128906 34.121094 152.796875 C 34.121094 151.457031 33.949219 150.457031 33.609375 149.792969 C 33.269531 149.125 32.757812 148.792969 32.074219 148.792969 Z M 32.074219 147.75 C 33.164062 147.75 33.996094 148.179688 34.574219 149.042969 C 35.148438 149.90625 35.433594 151.15625 35.433594 152.796875 C 35.433594 154.433594 35.148438 155.679688 34.574219 156.542969 C 33.996094 157.40625 33.164062 157.835938 32.074219 157.835938 C 30.984375 157.835938 30.152344 157.40625 29.578125 156.542969 C 29.003906 155.679688 28.714844 154.433594 28.714844 152.796875 C 28.714844 151.15625 29.003906 149.90625 29.578125 149.042969 C 30.152344 148.179688 30.984375 147.75 32.074219 147.75 Z M 32.074219 147.75 "/>
<path style=" stroke:none;fill-rule:nonzero;fill:rgb(0%,0%,0%);fill-opacity:1;" d="M 37.746094 155.992188 L 39.121094 155.992188 L 39.121094 157.644531 L 37.746094 157.644531 Z M 37.746094 155.992188 "/>
<path style=" stroke:none;fill-rule:nonzero;fill:rgb(0%,0%,0%);fill-opacity:1;" d="M 44.796875 148.792969 C 44.121094 148.792969 43.609375 149.125 43.269531 149.792969 C 42.929688 150.457031 42.757812 151.457031 42.757812 152.796875 C 42.757812 154.128906 42.929688 155.128906 43.269531 155.792969 C 43.609375 156.460938 44.121094 156.792969 44.796875 156.792969 C 45.476562 156.792969 45.988281 156.460938 46.328125 155.792969 C 46.671875 155.128906 46.84375 154.128906 46.84375 152.796875 C 46.84375 151.457031 46.671875 150.457031 46.328125 149.792969 C 45.988281 149.125 45.476562 148.792969 44.796875 148.792969 Z M 44.796875 147.75 C 45.886719 147.75 46.71875 148.179688 47.292969 149.042969 C 47.871094 149.90625 48.15625 151.15625 48.15625 152.796875 C 48.15625 154.433594 47.871094 155.679688 47.292969 156.542969 C 46.71875 157.40625 45.886719 157.835938 44.796875 157.835938 C 43.707031 157.835938 42.875 157.40625 42.300781 156.542969 C 41.726562 155.679688 41.4375 154.433594 41.4375 152.796875 C 41.4375 151.15625 41.726562 149.90625 42.300781 149.042969 C 42.875 148.179688 43.707031 147.75 44.796875 147.75 Z M 44.796875 147.75 "/>
<path style=" stroke:none;fill-rule:nonzero;fill:rgb(0%,0%,0%);fill-opacity:1;" d="M 50.480469 147.925781 L 55.644531 147.925781 L 55.644531 149.035156 L 51.6875 149.035156 L 51.6875 151.414062 C 51.875 151.347656 52.066406 151.300781 52.257812 151.269531 C 52.449219 151.238281 52.640625 151.222656 52.832031 151.222656 C 53.917969 151.222656 54.773438 151.519531 55.410156 152.113281 C 56.042969 152.707031 56.359375 153.511719 56.359375 154.527344 C 56.359375 155.574219 56.035156 156.386719 55.382812 156.96875 C 54.730469 157.546875 53.8125 157.835938 52.628906 157.835938 C 52.222656 157.835938 51.804688 157.800781 51.382812 157.730469 C 50.960938 157.660156 50.523438 157.558594 50.070312 157.417969 L 50.070312 156.097656 C 50.460938 156.308594 50.863281 156.46875 51.28125 156.570312 C 51.699219 156.675781 52.136719 156.726562 52.601562 156.726562 C 53.355469 156.726562 53.949219 156.53125 54.386719 156.136719 C 54.824219 155.742188 55.042969 155.207031 55.042969 154.527344 C 55.042969 153.851562 54.824219 153.316406 54.386719 152.921875 C 53.949219 152.523438 53.355469 152.328125 52.601562 152.328125 C 52.25 152.328125 51.898438 152.367188 51.550781 152.445312 C 51.203125 152.523438 50.84375 152.644531 50.480469 152.808594 Z M 50.480469 147.925781 "/>
<g clip-path="url(#clip12)" clip-rule="nonzero">
<path style="fill:none;stroke-width:0.8;stroke-linecap:square;stroke-linejoin:round;stroke:rgb(69.01961%,69.01961%,69.01961%);stroke-opacity:1;stroke-miterlimit:4;" d="M 50.144531 89.200195 L 329.144531 89.200195 " transform="matrix(1.333333,0,0,1.333333,0,0.000000000000014211)"/>
</g>
<path style="fill:none;stroke-width:0.8;stroke-linecap:butt;stroke-linejoin:round;stroke:rgb(0%,0%,0%);stroke-opacity:1;stroke-miterlimit:4;" d="M 0.000782013 -0.00131989 L -3.500195 -0.00131989 " transform="matrix(1.333333,0,0,1.333333,66.858332,118.935354)"/>
<path style=" stroke:none;fill-rule:nonzero;fill:rgb(0%,0%,0%);fill-opacity:1;" d="M 32.074219 115.148438 C 31.398438 115.148438 30.890625 115.480469 30.546875 116.148438 C 30.207031 116.8125 30.039062 117.8125 30.039062 119.152344 C 30.039062 120.484375 30.207031 121.480469 30.546875 122.148438 C 30.890625 122.816406 31.398438 123.148438 32.074219 123.148438 C 32.757812 123.148438 33.269531 122.816406 33.609375 122.148438 C 33.949219 121.480469 34.121094 120.484375 34.121094 119.152344 C 34.121094 117.8125 33.949219 116.8125 33.609375 116.148438 C 33.269531 115.480469 32.757812 115.148438 32.074219 115.148438 Z M 32.074219 114.105469 C 33.164062 114.105469 33.996094 114.535156 34.574219 115.398438 C 35.148438 116.261719 35.433594 117.511719 35.433594 119.152344 C 35.433594 120.785156 35.148438 122.035156 34.574219 122.898438 C 33.996094 123.761719 33.164062 124.191406 32.074219 124.191406 C 30.984375 124.191406 30.152344 123.761719 29.578125 122.898438 C 29.003906 122.035156 28.714844 120.785156 28.714844 119.152344 C 28.714844 117.511719 29.003906 116.261719 29.578125 115.398438 C 30.152344 114.535156 30.984375 114.105469 32.074219 114.105469 Z M 32.074219 114.105469 "/>
<path style=" stroke:none;fill-rule:nonzero;fill:rgb(0%,0%,0%);fill-opacity:1;" d="M 37.746094 122.347656 L 39.121094 122.347656 L 39.121094 124 L 37.746094 124 Z M 37.746094 122.347656 "/>
<path style=" stroke:none;fill-rule:nonzero;fill:rgb(0%,0%,0%);fill-opacity:1;" d="M 42.214844 122.894531 L 44.359375 122.894531 L 44.359375 115.476562 L 42.023438 115.945312 L 42.023438 114.75 L 44.347656 114.28125 L 45.664062 114.28125 L 45.664062 122.894531 L 47.8125 122.894531 L 47.8125 124 L 42.214844 124 Z M 42.214844 122.894531 "/>
<path style=" stroke:none;fill-rule:nonzero;fill:rgb(0%,0%,0%);fill-opacity:1;" d="M 53.28125 115.148438 C 52.601562 115.148438 52.09375 115.480469 51.753906 116.148438 C 51.410156 116.8125 51.242188 117.8125 51.242188 119.152344 C 51.242188 120.484375 51.410156 121.480469 51.753906 122.148438 C 52.09375 122.816406 52.601562 123.148438 53.28125 123.148438 C 53.960938 123.148438 54.472656 122.816406 54.8125 122.148438 C 55.15625 121.480469 55.324219 120.484375 55.324219 119.152344 C 55.324219 117.8125 55.15625 116.8125 54.8125 116.148438 C 54.472656 115.480469 53.960938 115.148438 53.28125 115.148438 Z M 53.28125 114.105469 C 54.371094 114.105469 55.203125 114.535156 55.777344 115.398438 C 56.351562 116.261719 56.640625 117.511719 56.640625 119.152344 C 56.640625 120.785156 56.351562 122.035156 55.777344 122.898438 C 55.203125 123.761719 54.371094 124.191406 53.28125 124.191406 C 52.191406 124.191406 51.359375 123.761719 50.785156 122.898438 C 50.207031 122.035156 49.921875 120.785156 49.921875 119.152344 C 49.921875 117.511719 50.207031 116.261719 50.785156 115.398438 C 51.359375 114.535156 52.191406 114.105469 53.28125 114.105469 Z M 53.28125 114.105469 "/>
<g clip-path="url(#clip13)" clip-rule="nonzero">
<path style="fill:none;stroke-width:0.8;stroke-linecap:square;stroke-linejoin:round;stroke:rgb(69.01961%,69.01961%,69.01961%);stroke-opacity:1;stroke-miterlimit:4;" d="M 50.144531 63.966797 L 329.144531 63.966797 " transform="matrix(1.333333,0,0,1.333333,0,0.000000000000014211)"/>
</g>
<path style="fill:none;stroke-width:0.8;stroke-linecap:butt;stroke-linejoin:round;stroke:rgb(0%,0%,0%);stroke-opacity:1;stroke-miterlimit:4;" d="M 0.000782013 -0.00087738 L -3.500195 -0.00087738 " transform="matrix(1.333333,0,0,1.333333,66.858332,85.290232)"/>
<path style=" stroke:none;fill-rule:nonzero;fill:rgb(0%,0%,0%);fill-opacity:1;" d="M 32.074219 81.5 C 31.398438 81.5 30.890625 81.835938 30.546875 82.5 C 30.207031 83.167969 30.039062 84.167969 30.039062 85.503906 C 30.039062 86.835938 30.207031 87.835938 30.546875 88.503906 C 30.890625 89.171875 31.398438 89.503906 32.074219 89.503906 C 32.757812 89.503906 33.269531 89.171875 33.609375 88.503906 C 33.949219 87.835938 34.121094 86.835938 34.121094 85.503906 C 34.121094 84.167969 33.949219 83.167969 33.609375 82.5 C 33.269531 81.835938 32.757812 81.5 32.074219 81.5 Z M 32.074219 80.460938 C 33.164062 80.460938 33.996094 80.890625 34.574219 81.753906 C 35.148438 82.613281 35.433594 83.867188 35.433594 85.503906 C 35.433594 87.140625 35.148438 88.390625 34.574219 89.253906 C 33.996094 90.113281 33.164062 90.546875 32.074219 90.546875 C 30.984375 90.546875 30.152344 90.113281 29.578125 89.253906 C 29.003906 88.390625 28.714844 87.140625 28.714844 85.503906 C 28.714844 83.867188 29.003906 82.613281 29.578125 81.753906 C 30.152344 80.890625 30.984375 80.460938 32.074219 80.460938 Z M 32.074219 80.460938 "/>
<path style=" stroke:none;fill-rule:nonzero;fill:rgb(0%,0%,0%);fill-opacity:1;" d="M 37.746094 88.703125 L 39.121094 88.703125 L 39.121094 90.355469 L 37.746094 90.355469 Z M 37.746094 88.703125 "/>
<path style=" stroke:none;fill-rule:nonzero;fill:rgb(0%,0%,0%);fill-opacity:1;" d="M 42.214844 89.25 L 44.359375 89.25 L 44.359375 81.832031 L 42.023438 82.300781 L 42.023438 81.105469 L 44.347656 80.636719 L 45.664062 80.636719 L 45.664062 89.25 L 47.8125 89.25 L 47.8125 90.355469 L 42.214844 90.355469 Z M 42.214844 89.25 "/>
<path style=" stroke:none;fill-rule:nonzero;fill:rgb(0%,0%,0%);fill-opacity:1;" d="M 50.480469 80.636719 L 55.644531 80.636719 L 55.644531 81.742188 L 51.6875 81.742188 L 51.6875 84.125 C 51.875 84.058594 52.066406 84.011719 52.257812 83.980469 C 52.449219 83.945312 52.640625 83.929688 52.832031 83.929688 C 53.917969 83.929688 54.773438 84.226562 55.410156 84.824219 C 56.042969 85.417969 56.359375 86.222656 56.359375 87.238281 C 56.359375 88.28125 56.035156 89.097656 55.382812 89.675781 C 54.730469 90.253906 53.8125 90.546875 52.628906 90.546875 C 52.222656 90.546875 51.804688 90.511719 51.382812 90.441406 C 50.960938 90.371094 50.523438 90.269531 50.070312 90.128906 L 50.070312 88.804688 C 50.460938 89.019531 50.863281 89.175781 51.28125 89.28125 C 51.699219 89.386719 52.136719 89.4375 52.601562 89.4375 C 53.355469 89.4375 53.949219 89.238281 54.386719 88.84375 C 54.824219 88.449219 55.042969 87.914062 55.042969 87.238281 C 55.042969 86.5625 54.824219 86.023438 54.386719 85.628906 C 53.949219 85.234375 53.355469 85.035156 52.601562 85.035156 C 52.25 85.035156 51.898438 85.074219 51.550781 85.152344 C 51.203125 85.230469 50.84375 85.351562 50.480469 85.519531 Z M 50.480469 80.636719 "/>
<g clip-path="url(#clip14)" clip-rule="nonzero">
<path style="fill:none;stroke-width:0.8;stroke-linecap:square;stroke-linejoin:round;stroke:rgb(69.01961%,69.01961%,69.01961%);stroke-opacity:1;stroke-miterlimit:4;" d="M 50.144531 38.733398 L 329.144531 38.733398 " transform="matrix(1.333333,0,0,1.333333,0,0.000000000000014211)"/>
</g>
<path style="fill:none;stroke-width:0.8;stroke-linecap:butt;stroke-linejoin:round;stroke:rgb(0%,0%,0%);stroke-opacity:1;stroke-miterlimit:4;" d="M 0.000782013 -0.00043869 L -3.500195 -0.00043869 " transform="matrix(1.333333,0,0,1.333333,66.858332,51.645116)"/>
<path style=" stroke:none;fill-rule:nonzero;fill:rgb(0%,0%,0%);fill-opacity:1;" d="M 32.074219 47.855469 C 31.398438 47.855469 30.890625 48.191406 30.546875 48.855469 C 30.207031 49.523438 30.039062 50.523438 30.039062 51.859375 C 30.039062 53.191406 30.207031 54.191406 30.546875 54.859375 C 30.890625 55.523438 31.398438 55.859375 32.074219 55.859375 C 32.757812 55.859375 33.269531 55.523438 33.609375 54.859375 C 33.949219 54.191406 34.121094 53.191406 34.121094 51.859375 C 34.121094 50.523438 33.949219 49.523438 33.609375 48.855469 C 33.269531 48.191406 32.757812 47.855469 32.074219 47.855469 Z M 32.074219 46.816406 C 33.164062 46.816406 33.996094 47.246094 34.574219 48.109375 C 35.148438 48.96875 35.433594 50.21875 35.433594 51.859375 C 35.433594 53.496094 35.148438 54.746094 34.574219 55.609375 C 33.996094 56.46875 33.164062 56.898438 32.074219 56.898438 C 30.984375 56.898438 30.152344 56.46875 29.578125 55.609375 C 29.003906 54.746094 28.714844 53.496094 28.714844 51.859375 C 28.714844 50.21875 29.003906 48.96875 29.578125 48.109375 C 30.152344 47.246094 30.984375 46.816406 32.074219 46.816406 Z M 32.074219 46.816406 "/>
<path style=" stroke:none;fill-rule:nonzero;fill:rgb(0%,0%,0%);fill-opacity:1;" d="M 37.746094 55.054688 L 39.121094 55.054688 L 39.121094 56.710938 L 37.746094 56.710938 Z M 37.746094 55.054688 "/>
<path style=" stroke:none;fill-rule:nonzero;fill:rgb(0%,0%,0%);fill-opacity:1;" d="M 43.117188 55.605469 L 47.707031 55.605469 L 47.707031 56.710938 L 41.535156 56.710938 L 41.535156 55.605469 C 42.035156 55.085938 42.714844 54.394531 43.574219 53.523438 C 44.4375 52.65625 44.980469 52.09375 45.199219 51.839844 C 45.621094 51.367188 45.914062 50.96875 46.082031 50.640625 C 46.25 50.3125 46.332031 49.988281 46.332031 49.671875 C 46.332031 49.15625 46.152344 48.734375 45.789062 48.410156 C 45.425781 48.085938 44.957031 47.921875 44.375 47.921875 C 43.960938 47.921875 43.527344 47.992188 43.066406 48.136719 C 42.609375 48.277344 42.121094 48.496094 41.601562 48.789062 L 41.601562 47.457031 C 42.128906 47.246094 42.625 47.085938 43.082031 46.976562 C 43.546875 46.867188 43.964844 46.816406 44.347656 46.816406 C 45.355469 46.816406 46.15625 47.066406 46.757812 47.570312 C 47.355469 48.074219 47.65625 48.746094 47.65625 49.585938 C 47.65625 49.988281 47.578125 50.367188 47.429688 50.726562 C 47.28125 51.082031 47.007812 51.503906 46.613281 51.988281 C 46.503906 52.117188 46.160156 52.480469 45.578125 53.082031 C 44.996094 53.683594 44.175781 54.523438 43.117188 55.605469 Z M 43.117188 55.605469 "/>
<path style=" stroke:none;fill-rule:nonzero;fill:rgb(0%,0%,0%);fill-opacity:1;" d="M 53.28125 47.855469 C 52.601562 47.855469 52.09375 48.191406 51.753906 48.855469 C 51.410156 49.523438 51.242188 50.523438 51.242188 51.859375 C 51.242188 53.191406 51.410156 54.191406 51.753906 54.859375 C 52.09375 55.523438 52.601562 55.859375 53.28125 55.859375 C 53.960938 55.859375 54.472656 55.523438 54.8125 54.859375 C 55.15625 54.191406 55.324219 53.191406 55.324219 51.859375 C 55.324219 50.523438 55.15625 49.523438 54.8125 48.855469 C 54.472656 48.191406 53.960938 47.855469 53.28125 47.855469 Z M 53.28125 46.816406 C 54.371094 46.816406 55.203125 47.246094 55.777344 48.109375 C 56.351562 48.96875 56.640625 50.21875 56.640625 51.859375 C 56.640625 53.496094 56.351562 54.746094 55.777344 55.609375 C 55.203125 56.46875 54.371094 56.898438 53.28125 56.898438 C 52.191406 56.898438 51.359375 56.46875 50.785156 55.609375 C 50.207031 54.746094 49.921875 53.496094 49.921875 51.859375 C 49.921875 50.21875 50.207031 48.96875 50.785156 48.109375 C 51.359375 47.246094 52.191406 46.816406 53.28125 46.816406 Z M 53.28125 46.816406 "/>
<g clip-path="url(#clip15)" clip-rule="nonzero">
<path style="fill:none;stroke-width:0.8;stroke-linecap:square;stroke-linejoin:round;stroke:rgb(69.01961%,69.01961%,69.01961%);stroke-opacity:1;stroke-miterlimit:4;" d="M 50.144531 13.5 L 329.144531 13.5 " transform="matrix(1.333333,0,0,1.333333,0,0.000000000000014211)"/>
</g>
<path style="fill:none;stroke-width:0.8;stroke-linecap:butt;stroke-linejoin:round;stroke:rgb(0%,0%,0%);stroke-opacity:1;stroke-miterlimit:4;" d="M 0.000782013 -0.000000000000010658 L -3.500195 -0.000000000000010658 " transform="matrix(1.333333,0,0,1.333333,66.858332,18)"/>
<path style=" stroke:none;fill-rule:nonzero;fill:rgb(0%,0%,0%);fill-opacity:1;" d="M 32.074219 14.210938 C 31.398438 14.210938 30.890625 14.542969 30.546875 15.210938 C 30.207031 15.875 30.039062 16.878906 30.039062 18.214844 C 30.039062 19.546875 30.207031 20.546875 30.546875 21.214844 C 30.890625 21.878906 31.398438 22.214844 32.074219 22.214844 C 32.757812 22.214844 33.269531 21.878906 33.609375 21.214844 C 33.949219 20.546875 34.121094 19.546875 34.121094 18.214844 C 34.121094 16.878906 33.949219 15.875 33.609375 15.210938 C 33.269531 14.542969 32.757812 14.210938 32.074219 14.210938 Z M 32.074219 13.167969 C 33.164062 13.167969 33.996094 13.601562 34.574219 14.464844 C 35.148438 15.324219 35.433594 16.574219 35.433594 18.214844 C 35.433594 19.851562 35.148438 21.101562 34.574219 21.964844 C 33.996094 22.824219 33.164062 23.253906 32.074219 23.253906 C 30.984375 23.253906 30.152344 22.824219 29.578125 21.964844 C 29.003906 21.101562 28.714844 19.851562 28.714844 18.214844 C 28.714844 16.574219 29.003906 15.324219 29.578125 14.464844 C 30.152344 13.601562 30.984375 13.167969 32.074219 13.167969 Z M 32.074219 13.167969 "/>
<path style=" stroke:none;fill-rule:nonzero;fill:rgb(0%,0%,0%);fill-opacity:1;" d="M 37.746094 21.410156 L 39.121094 21.410156 L 39.121094 23.066406 L 37.746094 23.066406 Z M 37.746094 21.410156 "/>
<path style=" stroke:none;fill-rule:nonzero;fill:rgb(0%,0%,0%);fill-opacity:1;" d="M 43.117188 21.960938 L 47.707031 21.960938 L 47.707031 23.066406 L 41.535156 23.066406 L 41.535156 21.960938 C 42.035156 21.441406 42.714844 20.75 43.574219 19.878906 C 44.4375 19.007812 44.980469 18.449219 45.199219 18.195312 C 45.621094 17.722656 45.914062 17.324219 46.082031 16.996094 C 46.25 16.667969 46.332031 16.34375 46.332031 16.027344 C 46.332031 15.511719 46.152344 15.089844 45.789062 14.765625 C 45.425781 14.4375 44.957031 14.277344 44.375 14.277344 C 43.960938 14.277344 43.527344 14.347656 43.066406 14.492188 C 42.609375 14.632812 42.121094 14.851562 41.601562 15.144531 L 41.601562 13.8125 C 42.128906 13.601562 42.625 13.441406 43.082031 13.332031 C 43.546875 13.222656 43.964844 13.167969 44.347656 13.167969 C 45.355469 13.167969 46.15625 13.421875 46.757812 13.925781 C 47.355469 14.429688 47.65625 15.101562 47.65625 15.941406 C 47.65625 16.34375 47.578125 16.722656 47.429688 17.082031 C 47.28125 17.4375 47.007812 17.859375 46.613281 18.34375 C 46.503906 18.472656 46.160156 18.835938 45.578125 19.4375 C 44.996094 20.039062 44.175781 20.878906 43.117188 21.960938 Z M 43.117188 21.960938 "/>
<path style=" stroke:none;fill-rule:nonzero;fill:rgb(0%,0%,0%);fill-opacity:1;" d="M 50.480469 13.34375 L 55.644531 13.34375 L 55.644531 14.453125 L 51.6875 14.453125 L 51.6875 16.835938 C 51.875 16.769531 52.066406 16.71875 52.257812 16.6875 C 52.449219 16.65625 52.640625 16.640625 52.832031 16.640625 C 53.917969 16.640625 54.773438 16.9375 55.410156 17.53125 C 56.042969 18.125 56.359375 18.929688 56.359375 19.945312 C 56.359375 20.992188 56.035156 21.804688 55.382812 22.386719 C 54.730469 22.964844 53.8125 23.253906 52.628906 23.253906 C 52.222656 23.253906 51.804688 23.21875 51.382812 23.152344 C 50.960938 23.082031 50.523438 22.976562 50.070312 22.839844 L 50.070312 21.515625 C 50.460938 21.726562 50.863281 21.886719 51.28125 21.992188 C 51.699219 22.09375 52.136719 22.148438 52.601562 22.148438 C 53.355469 22.148438 53.949219 21.949219 54.386719 21.554688 C 54.824219 21.160156 55.042969 20.625 55.042969 19.945312 C 55.042969 19.269531 54.824219 18.734375 54.386719 18.339844 C 53.949219 17.945312 53.355469 17.746094 52.601562 17.746094 C 52.25 17.746094 51.898438 17.785156 51.550781 17.863281 C 51.203125 17.941406 50.84375 18.0625 50.480469 18.226562 Z M 50.480469 13.34375 "/>
<path style=" stroke:none;fill-rule:nonzero;fill:rgb(0%,0%,0%);fill-opacity:1;" d="M 16 148.113281 C 15.132812 148.113281 14.460938 148.292969 13.984375 148.652344 C 13.503906 149.007812 13.265625 149.511719 13.265625 150.160156 C 13.265625 150.800781 13.503906 151.300781 13.984375 151.660156 C 14.460938 152.015625 15.132812 152.195312 16 152.195312 C 16.863281 152.195312 17.535156 152.015625 18.011719 151.660156 C 18.492188 151.300781 18.730469 150.800781 18.730469 150.160156 C 18.730469 149.511719 18.492188 149.007812 18.011719 148.652344 C 17.535156 148.292969 16.863281 148.113281 16 148.113281 Z M 18.828125 146.917969 C 20.066406 146.917969 20.992188 147.191406 21.597656 147.742188 C 22.203125 148.292969 22.503906 149.136719 22.503906 150.273438 C 22.503906 150.695312 22.472656 151.09375 22.410156 151.464844 C 22.347656 151.839844 22.25 152.203125 22.121094 152.554688 L 20.957031 152.554688 C 21.148438 152.203125 21.285156 151.855469 21.378906 151.511719 C 21.46875 151.167969 21.515625 150.820312 21.515625 150.464844 C 21.515625 149.679688 21.308594 149.089844 20.898438 148.699219 C 20.492188 148.308594 19.871094 148.113281 19.042969 148.113281 L 18.449219 148.113281 C 18.878906 148.363281 19.199219 148.679688 19.414062 149.066406 C 19.625 149.449219 19.730469 149.914062 19.730469 150.453125 C 19.730469 151.34375 19.390625 152.066406 18.710938 152.613281 C 18.027344 153.160156 17.125 153.433594 16 153.433594 C 14.871094 153.433594 13.96875 153.160156 13.289062 152.613281 C 12.605469 152.066406 12.265625 151.34375 12.265625 150.453125 C 12.265625 149.914062 12.371094 149.449219 12.582031 149.066406 C 12.796875 148.679688 13.117188 148.363281 13.546875 148.113281 L 12.441406 148.113281 L 12.441406 146.917969 Z M 18.828125 146.917969 "/>
<path style=" stroke:none;fill-rule:nonzero;fill:rgb(0%,0%,0%);fill-opacity:1;" d="M 13.558594 140.222656 C 13.480469 140.359375 13.421875 140.503906 13.386719 140.664062 C 13.351562 140.820312 13.332031 140.996094 13.332031 141.1875 C 13.332031 141.863281 13.550781 142.382812 13.992188 142.746094 C 14.433594 143.109375 15.066406 143.289062 15.890625 143.289062 L 19.730469 143.289062 L 19.730469 144.496094 L 12.441406 144.496094 L 12.441406 143.289062 L 13.574219 143.289062 C 13.128906 143.039062 12.800781 142.710938 12.585938 142.308594 C 12.371094 141.902344 12.265625 141.414062 12.265625 140.835938 C 12.265625 140.753906 12.269531 140.660156 12.28125 140.5625 C 12.289062 140.460938 12.308594 140.351562 12.328125 140.230469 Z M 13.558594 140.222656 "/>
<path style=" stroke:none;fill-rule:nonzero;fill:rgb(0%,0%,0%);fill-opacity:1;" d="M 16.066406 135.652344 C 16.066406 136.621094 16.175781 137.292969 16.398438 137.664062 C 16.617188 138.039062 16.996094 138.226562 17.53125 138.226562 C 17.957031 138.226562 18.292969 138.085938 18.542969 137.804688 C 18.792969 137.523438 18.917969 137.144531 18.917969 136.664062 C 18.917969 135.996094 18.679688 135.464844 18.210938 135.0625 C 17.738281 134.660156 17.113281 134.460938 16.332031 134.460938 L 16.066406 134.460938 Z M 15.570312 133.261719 L 19.730469 133.261719 L 19.730469 134.460938 L 18.625 134.460938 C 19.066406 134.734375 19.394531 135.074219 19.605469 135.484375 C 19.816406 135.890625 19.921875 136.390625 19.921875 136.980469 C 19.921875 137.726562 19.710938 138.320312 19.292969 138.761719 C 18.871094 139.203125 18.3125 139.421875 17.609375 139.421875 C 16.789062 139.421875 16.171875 139.148438 15.753906 138.601562 C 15.335938 138.050781 15.128906 137.230469 15.128906 136.140625 L 15.128906 134.460938 L 15.011719 134.460938 C 14.460938 134.460938 14.03125 134.640625 13.730469 135.003906 C 13.429688 135.367188 13.277344 135.875 13.277344 136.53125 C 13.277344 136.949219 13.328125 137.355469 13.429688 137.75 C 13.527344 138.144531 13.679688 138.523438 13.878906 138.886719 L 12.769531 138.886719 C 12.601562 138.449219 12.476562 138.027344 12.390625 137.613281 C 12.308594 137.199219 12.265625 136.800781 12.265625 136.410156 C 12.265625 135.351562 12.539062 134.566406 13.085938 134.042969 C 13.632812 133.523438 14.460938 133.261719 15.570312 133.261719 Z M 15.570312 133.261719 "/>
<path style=" stroke:none;fill-rule:nonzero;fill:rgb(0%,0%,0%);fill-opacity:1;" d="M 13.546875 126 L 9.601562 126 L 9.601562 124.800781 L 19.730469 124.800781 L 19.730469 126 L 18.636719 126 C 19.070312 126.25 19.394531 126.566406 19.605469 126.953125 C 19.816406 127.335938 19.921875 127.796875 19.921875 128.335938 C 19.921875 129.214844 19.570312 129.933594 18.867188 130.488281 C 18.164062 131.042969 17.238281 131.316406 16.089844 131.316406 C 14.945312 131.316406 14.023438 131.042969 13.320312 130.488281 C 12.617188 129.933594 12.265625 129.214844 12.265625 128.335938 C 12.265625 127.796875 12.371094 127.335938 12.582031 126.953125 C 12.789062 126.566406 13.113281 126.25 13.546875 126 Z M 16.089844 130.078125 C 16.972656 130.078125 17.664062 129.898438 18.164062 129.535156 C 18.664062 129.171875 18.917969 128.675781 18.917969 128.042969 C 18.917969 127.410156 18.664062 126.910156 18.164062 126.546875 C 17.664062 126.179688 16.972656 126 16.089844 126 C 15.210938 126 14.519531 126.179688 14.019531 126.546875 C 13.515625 126.910156 13.265625 127.410156 13.265625 128.042969 C 13.265625 128.675781 13.515625 129.171875 14.019531 129.535156 C 14.519531 129.898438 15.210938 130.078125 16.089844 130.078125 Z M 16.089844 130.078125 "/>
<path style=" stroke:none;fill-rule:nonzero;fill:rgb(0%,0%,0%);fill-opacity:1;" d="M 13.277344 115.269531 C 13.277344 115.910156 13.53125 116.417969 14.03125 116.792969 C 14.53125 117.167969 15.21875 117.351562 16.089844 117.351562 C 16.964844 117.351562 17.652344 117.167969 18.152344 116.796875 C 18.652344 116.425781 18.902344 115.914062 18.902344 115.269531 C 18.902344 114.632812 18.652344 114.125 18.148438 113.753906 C 17.644531 113.378906 16.960938 113.191406 16.089844 113.191406 C 15.226562 113.191406 14.542969 113.378906 14.039062 113.753906 C 13.53125 114.125 13.277344 114.632812 13.277344 115.269531 Z M 12.265625 115.269531 C 12.265625 114.226562 12.601562 113.410156 13.28125 112.816406 C 13.957031 112.21875 14.894531 111.921875 16.089844 111.921875 C 17.285156 111.921875 18.222656 112.21875 18.902344 112.816406 C 19.582031 113.410156 19.921875 114.226562 19.921875 115.269531 C 19.921875 116.316406 19.582031 117.136719 18.902344 117.726562 C 18.222656 118.320312 17.285156 118.617188 16.089844 118.617188 C 14.894531 118.617188 13.957031 118.320312 13.28125 117.726562 C 12.601562 117.136719 12.265625 116.316406 12.265625 115.269531 Z M 12.265625 115.269531 "/>
<path style=" stroke:none;fill-rule:nonzero;fill:rgb(0%,0%,0%);fill-opacity:1;" d="M 9.601562 106.246094 L 10.597656 106.246094 L 10.597656 107.390625 C 10.597656 107.820312 10.683594 108.121094 10.859375 108.289062 C 11.03125 108.453125 11.34375 108.539062 11.796875 108.539062 L 12.441406 108.539062 L 12.441406 106.5625 L 13.371094 106.5625 L 13.371094 108.539062 L 19.730469 108.539062 L 19.730469 109.742188 L 13.371094 109.742188 L 13.371094 110.886719 L 12.441406 110.886719 L 12.441406 109.742188 L 11.929688 109.742188 C 11.121094 109.742188 10.527344 109.550781 10.160156 109.175781 C 9.785156 108.796875 9.601562 108.199219 9.601562 107.378906 Z M 9.601562 106.246094 "/>
<path style=" stroke:none;fill-rule:nonzero;fill:rgb(0%,0%,0%);fill-opacity:1;" d="M 12.652344 96.355469 L 13.789062 96.355469 C 13.613281 96.695312 13.484375 97.046875 13.398438 97.410156 C 13.308594 97.773438 13.265625 98.152344 13.265625 98.542969 C 13.265625 99.140625 13.359375 99.585938 13.539062 99.882812 C 13.722656 100.179688 13.996094 100.328125 14.359375 100.328125 C 14.636719 100.328125 14.855469 100.222656 15.015625 100.007812 C 15.171875 99.796875 15.324219 99.367188 15.464844 98.726562 L 15.558594 98.316406 C 15.742188 97.464844 15.996094 96.859375 16.328125 96.503906 C 16.660156 96.144531 17.125 95.964844 17.71875 95.964844 C 18.398438 95.964844 18.933594 96.234375 19.328125 96.769531 C 19.722656 97.304688 19.921875 98.042969 19.921875 98.980469 C 19.921875 99.371094 19.882812 99.777344 19.804688 100.199219 C 19.730469 100.625 19.617188 101.070312 19.464844 101.539062 L 18.226562 101.539062 C 18.457031 101.09375 18.628906 100.660156 18.746094 100.230469 C 18.859375 99.800781 18.917969 99.375 18.917969 98.953125 C 18.917969 98.390625 18.820312 97.957031 18.628906 97.652344 C 18.433594 97.347656 18.160156 97.195312 17.808594 97.195312 C 17.484375 97.195312 17.234375 97.304688 17.0625 97.527344 C 16.890625 97.742188 16.722656 98.222656 16.558594 98.96875 L 16.460938 99.382812 C 16.308594 100.125 16.066406 100.660156 15.742188 100.992188 C 15.421875 101.320312 14.976562 101.484375 14.414062 101.484375 C 13.726562 101.484375 13.195312 101.242188 12.824219 100.757812 C 12.453125 100.269531 12.265625 99.582031 12.265625 98.6875 C 12.265625 98.246094 12.296875 97.828125 12.363281 97.4375 C 12.425781 97.046875 12.523438 96.6875 12.652344 96.355469 Z M 12.652344 96.355469 "/>
<path style=" stroke:none;fill-rule:nonzero;fill:rgb(0%,0%,0%);fill-opacity:1;" d="M 12.441406 94.058594 L 12.441406 92.859375 L 19.730469 92.859375 L 19.730469 94.058594 Z M 9.601562 94.058594 L 9.601562 92.859375 L 11.117188 92.859375 L 11.117188 94.058594 Z M 9.601562 94.058594 "/>
<path style=" stroke:none;fill-rule:nonzero;fill:rgb(0%,0%,0%);fill-opacity:1;" d="M 16 85.554688 C 15.132812 85.554688 14.460938 85.734375 13.984375 86.09375 C 13.503906 86.449219 13.265625 86.953125 13.265625 87.601562 C 13.265625 88.242188 13.503906 88.742188 13.984375 89.101562 C 14.460938 89.457031 15.132812 89.636719 16 89.636719 C 16.863281 89.636719 17.535156 89.457031 18.011719 89.101562 C 18.492188 88.742188 18.730469 88.242188 18.730469 87.601562 C 18.730469 86.953125 18.492188 86.449219 18.011719 86.09375 C 17.535156 85.734375 16.863281 85.554688 16 85.554688 Z M 18.828125 84.359375 C 20.066406 84.359375 20.992188 84.632812 21.597656 85.183594 C 22.203125 85.734375 22.503906 86.578125 22.503906 87.714844 C 22.503906 88.136719 22.472656 88.535156 22.410156 88.90625 C 22.347656 89.28125 22.25 89.644531 22.121094 89.996094 L 20.957031 89.996094 C 21.148438 89.644531 21.285156 89.296875 21.378906 88.953125 C 21.46875 88.609375 21.515625 88.261719 21.515625 87.90625 C 21.515625 87.121094 21.308594 86.53125 20.898438 86.140625 C 20.492188 85.75 19.871094 85.554688 19.042969 85.554688 L 18.449219 85.554688 C 18.878906 85.804688 19.199219 86.121094 19.414062 86.507812 C 19.625 86.890625 19.730469 87.355469 19.730469 87.894531 C 19.730469 88.785156 19.390625 89.507812 18.710938 90.054688 C 18.027344 90.601562 17.125 90.875 16 90.875 C 14.871094 90.875 13.96875 90.601562 13.289062 90.054688 C 12.605469 89.507812 12.265625 88.785156 12.265625 87.894531 C 12.265625 87.355469 12.371094 86.890625 12.582031 86.507812 C 12.796875 86.121094 13.117188 85.804688 13.546875 85.554688 L 12.441406 85.554688 L 12.441406 84.359375 Z M 18.828125 84.359375 "/>
<path style=" stroke:none;fill-rule:nonzero;fill:rgb(0%,0%,0%);fill-opacity:1;" d="M 13.839844 76.214844 C 13.300781 75.914062 12.902344 75.554688 12.648438 75.136719 C 12.390625 74.722656 12.265625 74.230469 12.265625 73.667969 C 12.265625 72.90625 12.53125 72.320312 13.0625 71.910156 C 13.59375 71.496094 14.347656 71.289062 15.328125 71.289062 L 19.730469 71.289062 L 19.730469 72.496094 L 15.367188 72.496094 C 14.671875 72.496094 14.152344 72.617188 13.816406 72.867188 C 13.476562 73.113281 13.304688 73.492188 13.304688 74 C 13.304688 74.621094 13.511719 75.109375 13.925781 75.472656 C 14.335938 75.832031 14.898438 76.011719 15.609375 76.011719 L 19.730469 76.011719 L 19.730469 77.214844 L 15.367188 77.214844 C 14.664062 77.214844 14.148438 77.339844 13.808594 77.585938 C 13.472656 77.832031 13.304688 78.214844 13.304688 78.730469 C 13.304688 79.34375 13.511719 79.832031 13.925781 80.191406 C 14.339844 80.550781 14.902344 80.730469 15.609375 80.730469 L 19.730469 80.730469 L 19.730469 81.9375 L 12.441406 81.9375 L 12.441406 80.730469 L 13.574219 80.730469 C 13.125 80.457031 12.796875 80.128906 12.582031 79.75 C 12.371094 79.367188 12.265625 78.914062 12.265625 78.386719 C 12.265625 77.859375 12.398438 77.40625 12.667969 77.035156 C 12.9375 76.664062 13.328125 76.390625 13.839844 76.214844 Z M 13.839844 76.214844 "/>
<path style=" stroke:none;fill-rule:nonzero;fill:rgb(0%,0%,0%);fill-opacity:1;" d="M 13.277344 66.078125 C 13.277344 66.71875 13.53125 67.226562 14.03125 67.601562 C 14.53125 67.972656 15.21875 68.160156 16.089844 68.160156 C 16.964844 68.160156 17.652344 67.976562 18.152344 67.605469 C 18.652344 67.230469 18.902344 66.722656 18.902344 66.078125 C 18.902344 65.4375 18.652344 64.933594 18.148438 64.558594 C 17.644531 64.1875 16.960938 64 16.089844 64 C 15.226562 64 14.542969 64.1875 14.039062 64.558594 C 13.53125 64.933594 13.277344 65.4375 13.277344 66.078125 Z M 12.265625 66.078125 C 12.265625 65.035156 12.601562 64.21875 13.28125 63.621094 C 13.957031 63.027344 14.894531 62.730469 16.089844 62.730469 C 17.285156 62.730469 18.222656 63.027344 18.902344 63.621094 C 19.582031 64.21875 19.921875 65.035156 19.921875 66.078125 C 19.921875 67.121094 19.582031 67.941406 18.902344 68.535156 C 18.222656 69.128906 17.285156 69.421875 16.089844 69.421875 C 14.894531 69.421875 13.957031 69.128906 13.28125 68.535156 C 12.601562 67.941406 12.265625 67.121094 12.265625 66.078125 Z M 12.265625 66.078125 "/>
<path style=" stroke:none;fill-rule:nonzero;fill:rgb(0%,0%,0%);fill-opacity:1;" d="M 12.441406 60.746094 L 12.441406 59.546875 L 19.730469 59.546875 L 19.730469 60.746094 Z M 9.601562 60.746094 L 9.601562 59.546875 L 11.117188 59.546875 L 11.117188 60.746094 Z M 9.601562 60.746094 "/>
<path style=" stroke:none;fill-rule:nonzero;fill:rgb(0%,0%,0%);fill-opacity:1;" d="M 13.546875 52.242188 L 9.601562 52.242188 L 9.601562 51.042969 L 19.730469 51.042969 L 19.730469 52.242188 L 18.636719 52.242188 C 19.070312 52.492188 19.394531 52.8125 19.605469 53.195312 C 19.816406 53.578125 19.921875 54.039062 19.921875 54.578125 C 19.921875 55.460938 19.570312 56.175781 18.867188 56.730469 C 18.164062 57.285156 17.238281 57.5625 16.089844 57.5625 C 14.945312 57.5625 14.023438 57.285156 13.320312 56.730469 C 12.617188 56.175781 12.265625 55.460938 12.265625 54.578125 C 12.265625 54.039062 12.371094 53.578125 12.582031 53.195312 C 12.789062 52.8125 13.113281 52.492188 13.546875 52.242188 Z M 16.089844 56.324219 C 16.972656 56.324219 17.664062 56.140625 18.164062 55.78125 C 18.664062 55.417969 18.917969 54.917969 18.917969 54.285156 C 18.917969 53.652344 18.664062 53.152344 18.164062 52.789062 C 17.664062 52.425781 16.972656 52.242188 16.089844 52.242188 C 15.210938 52.242188 14.519531 52.425781 14.019531 52.789062 C 13.515625 53.152344 13.265625 53.652344 13.265625 54.285156 C 13.265625 54.917969 13.515625 55.417969 14.019531 55.78125 C 14.519531 56.140625 15.210938 56.324219 16.089844 56.324219 Z M 16.089844 56.324219 "/>
<path style="fill:none;stroke-width:1.5;stroke-linecap:square;stroke-linejoin:round;stroke:rgb(12.156863%,46.666667%,70.588237%);stroke-opacity:1;stroke-miterlimit:4;" d="M 62.824219 139.5 L 77.182617 139.253906 L 86.753906 138.914062 L 94.728516 138.424805 L 101.109375 137.81543 L 105.896484 137.173828 L 110.680664 136.31543 L 115.467773 135.161133 L 118.658203 134.185547 L 121.848633 133.004883 L 125.039062 131.575195 L 128.229492 129.855469 L 131.419922 127.787109 L 134.610352 125.308594 L 137.800781 122.355469 L 140.991211 118.851562 L 144.181641 114.720703 L 147.37207 109.889648 L 150.5625 104.288086 L 153.75293 97.87207 L 156.943359 90.618164 L 160.133789 82.549805 L 163.324219 73.754883 L 168.108398 59.583984 L 174.489258 40.444336 L 177.679688 31.713867 L 179.276367 27.776367 L 180.870117 24.208008 L 182.466797 21.067383 L 184.060547 18.416016 L 185.654297 16.297852 L 187.250977 14.753906 L 188.844727 13.813477 L 190.441406 13.5 L 192.035156 13.813477 L 193.631836 14.753906 L 195.225586 16.297852 L 196.822266 18.416016 L 198.416016 21.067383 L 200.012695 24.208008 L 201.606445 27.776367 L 203.203125 31.713867 L 206.393555 40.444336 L 211.177734 54.732422 L 215.964844 69.134766 L 219.155273 78.234375 L 222.345703 86.680664 L 225.536133 94.347656 L 228.726562 101.185547 L 231.916992 107.188477 L 235.107422 112.397461 L 238.297852 116.868164 L 241.488281 120.676758 L 244.678711 123.896484 L 247.869141 126.603516 L 251.05957 128.868164 L 254.25 130.754883 L 257.44043 132.322266 L 260.630859 133.623047 L 263.821289 134.695312 L 267.011719 135.583008 L 271.795898 136.628906 L 276.583008 137.411133 L 281.367188 137.991211 L 287.748047 138.541992 L 295.725586 138.984375 L 306.890625 139.330078 L 316.461914 139.482422 " transform="matrix(1.333333,0,0,1.333333,0,0.000000000000014211)"/>
<path style="fill:none;stroke-width:0.8;stroke-linecap:square;stroke-linejoin:miter;stroke:rgb(0%,0%,0%);stroke-opacity:1;stroke-miterlimit:4;" d="M 50.144531 145.798828 L 50.144531 7.201172 " transform="matrix(1.333333,0,0,1.333333,0,0.000000000000014211)"/>
<path style="fill:none;stroke-width:0.8;stroke-linecap:square;stroke-linejoin:miter;stroke:rgb(0%,0%,0%);stroke-opacity:1;stroke-miterlimit:4;" d="M 329.144531 145.798828 L 329.144531 7.201172 " transform="matrix(1.333333,0,0,1.333333,0,0.000000000000014211)"/>
<path style="fill:none;stroke-width:0.8;stroke-linecap:square;stroke-linejoin:miter;stroke:rgb(0%,0%,0%);stroke-opacity:1;stroke-miterlimit:4;" d="M 50.144531 145.798828 L 329.144531 145.798828 " transform="matrix(1.333333,0,0,1.333333,0,0.000000000000014211)"/>
<path style="fill:none;stroke-width:0.8;stroke-linecap:square;stroke-linejoin:miter;stroke:rgb(0%,0%,0%);stroke-opacity:1;stroke-miterlimit:4;" d="M 50.144531 7.201172 L 329.144531 7.201172 " transform="matrix(1.333333,0,0,1.333333,0,0.000000000000014211)"/>
</g>
</svg>
